<svg xmlns="http://www.w3.org/2000/svg" xmlns:xlink="http://www.w3.org/1999/xlink" width="500" zoomAndPan="magnify" viewBox="0 0 375 374.999991" height="500" preserveAspectRatio="xMidYMid meet" version="1.0"><path fill="#222e3c" d="M 93.75 112.5 C 93.136719 112.5 92.523438 112.53125 91.914062 112.589844 C 91.300781 112.652344 90.695312 112.742188 90.09375 112.859375 C 89.488281 112.980469 88.894531 113.128906 88.308594 113.308594 C 87.71875 113.484375 87.140625 113.691406 86.574219 113.925781 C 86.007812 114.164062 85.453125 114.425781 84.910156 114.714844 C 84.371094 115.003906 83.84375 115.320312 83.332031 115.660156 C 82.824219 116 82.328125 116.367188 81.855469 116.757812 C 81.378906 117.144531 80.925781 117.558594 80.492188 117.992188 C 80.058594 118.425781 79.644531 118.878906 79.257812 119.355469 C 78.867188 119.828125 78.5 120.324219 78.160156 120.832031 C 77.820312 121.34375 77.503906 121.871094 77.214844 122.410156 C 76.925781 122.953125 76.664062 123.507812 76.425781 124.074219 C 76.191406 124.640625 75.984375 125.21875 75.808594 125.808594 C 75.628906 126.394531 75.480469 126.988281 75.359375 127.59375 C 75.242188 128.195312 75.152344 128.800781 75.089844 129.414062 C 75.03125 130.023438 75 130.636719 75 131.25 C 75 131.863281 75.03125 132.476562 75.089844 133.085938 C 75.152344 133.699219 75.242188 134.304688 75.359375 134.90625 C 75.480469 135.511719 75.628906 136.105469 75.808594 136.691406 C 75.984375 137.28125 76.191406 137.859375 76.425781 138.425781 C 76.664062 138.992188 76.925781 139.546875 77.214844 140.089844 C 77.503906 140.628906 77.820312 141.15625 78.160156 141.667969 C 78.5 142.175781 78.867188 142.671875 79.257812 143.144531 C 79.644531 143.621094 80.058594 144.074219 80.492188 144.507812 C 80.925781 144.941406 81.378906 145.355469 81.855469 145.742188 C 82.328125 146.132812 82.824219 146.5 83.332031 146.839844 C 83.84375 147.179688 84.371094 147.496094 84.910156 147.785156 C 85.453125 148.074219 86.007812 148.335938 86.574219 148.574219 C 87.140625 148.808594 87.71875 149.015625 88.308594 149.191406 C 88.894531 149.371094 89.488281 149.519531 90.09375 149.640625 C 90.695312 149.757812 91.300781 149.847656 91.914062 149.910156 C 92.523438 149.96875 93.136719 150 93.75 150 C 94.363281 150 94.976562 149.96875 95.585938 149.910156 C 96.199219 149.847656 96.804688 149.757812 97.40625 149.640625 C 98.011719 149.519531 98.605469 149.371094 99.191406 149.191406 C 99.78125 149.015625 100.359375 148.808594 100.925781 148.574219 C 101.492188 148.335938 102.046875 148.074219 102.589844 147.785156 C 103.128906 147.496094 103.65625 147.179688 104.167969 146.839844 C 104.675781 146.5 105.171875 146.132812 105.644531 145.742188 C 106.121094 145.355469 106.574219 144.941406 107.007812 144.507812 C 107.441406 144.074219 107.855469 143.621094 108.242188 143.144531 C 108.632812 142.671875 109 142.175781 109.339844 141.667969 C 109.679688 141.15625 109.996094 140.628906 110.285156 140.089844 C 110.574219 139.546875 110.835938 138.992188 111.074219 138.425781 C 111.308594 137.859375 111.515625 137.28125 111.691406 136.691406 C 111.871094 136.105469 112.019531 135.511719 112.140625 134.90625 C 112.257812 134.304688 112.347656 133.699219 112.410156 133.085938 C 112.46875 132.476562 112.5 131.863281 112.5 131.25 C 112.5 130.636719 112.46875 130.023438 112.410156 129.414062 C 112.347656 128.800781 112.257812 128.195312 112.140625 127.59375 C 112.019531 126.988281 111.871094 126.394531 111.691406 125.808594 C 111.515625 125.21875 111.308594 124.640625 111.074219 124.074219 C 110.835938 123.507812 110.574219 122.953125 110.285156 122.410156 C 109.996094 121.871094 109.679688 121.34375 109.339844 120.832031 C 109 120.324219 108.632812 119.828125 108.242188 119.355469 C 107.855469 118.878906 107.441406 118.425781 107.007812 117.992188 C 106.574219 117.558594 106.121094 117.144531 105.644531 116.757812 C 105.171875 116.367188 104.675781 116 104.167969 115.660156 C 103.65625 115.320312 103.128906 115.003906 102.589844 114.714844 C 102.046875 114.425781 101.492188 114.164062 100.925781 113.925781 C 100.359375 113.691406 99.78125 113.484375 99.191406 113.308594 C 98.605469 113.128906 98.011719 112.980469 97.40625 112.859375 C 96.804688 112.742188 96.199219 112.652344 95.585938 112.589844 C 94.976562 112.53125 94.363281 112.5 93.75 112.5 Z M 206.25 112.5 C 205.636719 112.5 205.023438 112.53125 204.414062 112.589844 C 203.800781 112.652344 203.195312 112.742188 202.59375 112.859375 C 201.988281 112.980469 201.394531 113.128906 200.808594 113.308594 C 200.21875 113.484375 199.640625 113.691406 199.074219 113.925781 C 198.507812 114.164062 197.953125 114.425781 197.410156 114.714844 C 196.871094 115.003906 196.34375 115.320312 195.832031 115.660156 C 195.324219 116 194.828125 116.367188 194.355469 116.757812 C 193.878906 117.144531 193.425781 117.558594 192.992188 117.992188 C 192.558594 118.425781 192.144531 118.878906 191.757812 119.355469 C 191.367188 119.828125 191 120.324219 190.660156 120.832031 C 190.320312 121.34375 190.003906 121.871094 189.714844 122.410156 C 189.425781 122.953125 189.164062 123.507812 188.925781 124.074219 C 188.691406 124.640625 188.484375 125.21875 188.308594 125.808594 C 188.128906 126.394531 187.980469 126.988281 187.859375 127.59375 C 187.742188 128.195312 187.652344 128.800781 187.589844 129.414062 C 187.53125 130.023438 187.5 130.636719 187.5 131.25 C 187.5 131.863281 187.53125 132.476562 187.589844 133.085938 C 187.652344 133.699219 187.742188 134.304688 187.859375 134.90625 C 187.980469 135.511719 188.128906 136.105469 188.308594 136.691406 C 188.484375 137.28125 188.691406 137.859375 188.925781 138.425781 C 189.164062 138.992188 189.425781 139.546875 189.714844 140.089844 C 190.003906 140.628906 190.320312 141.15625 190.660156 141.667969 C 191 142.175781 191.367188 142.671875 191.757812 143.144531 C 192.144531 143.621094 192.558594 144.074219 192.992188 144.507812 C 193.425781 144.941406 193.878906 145.355469 194.355469 145.742188 C 194.828125 146.132812 195.324219 146.5 195.832031 146.839844 C 196.34375 147.179688 196.871094 147.496094 197.410156 147.785156 C 197.953125 148.074219 198.507812 148.335938 199.074219 148.574219 C 199.640625 148.808594 200.21875 149.015625 200.808594 149.191406 C 201.394531 149.371094 201.988281 149.519531 202.59375 149.640625 C 203.195312 149.757812 203.800781 149.847656 204.414062 149.910156 C 205.023438 149.96875 205.636719 150 206.25 150 C 206.863281 150 207.476562 149.96875 208.085938 149.910156 C 208.699219 149.847656 209.304688 149.757812 209.90625 149.640625 C 210.511719 149.519531 211.105469 149.371094 211.691406 149.191406 C 212.28125 149.015625 212.859375 148.808594 213.425781 148.574219 C 213.992188 148.335938 214.546875 148.074219 215.089844 147.785156 C 215.628906 147.496094 216.15625 147.179688 216.667969 146.839844 C 217.175781 146.5 217.671875 146.132812 218.144531 145.742188 C 218.621094 145.355469 219.074219 144.941406 219.507812 144.507812 C 219.941406 144.074219 220.355469 143.621094 220.742188 143.144531 C 221.132812 142.671875 221.5 142.175781 221.839844 141.667969 C 222.179688 141.15625 222.496094 140.628906 222.785156 140.089844 C 223.074219 139.546875 223.335938 138.992188 223.574219 138.425781 C 223.808594 137.859375 224.015625 137.28125 224.191406 136.691406 C 224.371094 136.105469 224.519531 135.511719 224.640625 134.90625 C 224.757812 134.304688 224.847656 133.699219 224.910156 133.085938 C 224.96875 132.476562 225 131.863281 225 131.25 C 225 130.636719 224.96875 130.023438 224.910156 129.414062 C 224.847656 128.800781 224.757812 128.195312 224.640625 127.59375 C 224.519531 126.988281 224.371094 126.394531 224.191406 125.808594 C 224.015625 125.21875 223.808594 124.640625 223.574219 124.074219 C 223.335938 123.507812 223.074219 122.953125 222.785156 122.410156 C 222.496094 121.871094 222.179688 121.34375 221.839844 120.832031 C 221.5 120.324219 221.132812 119.828125 220.742188 119.355469 C 220.355469 118.878906 219.941406 118.425781 219.507812 117.992188 C 219.074219 117.558594 218.621094 117.144531 218.144531 116.757812 C 217.671875 116.367188 217.175781 116 216.667969 115.660156 C 216.15625 115.320312 215.628906 115.003906 215.089844 114.714844 C 214.546875 114.425781 213.992188 114.164062 213.425781 113.925781 C 212.859375 113.691406 212.28125 113.484375 211.691406 113.308594 C 211.105469 113.128906 210.511719 112.980469 209.90625 112.859375 C 209.304688 112.742188 208.699219 112.652344 208.085938 112.589844 C 207.476562 112.53125 206.863281 112.5 206.25 112.5 Z M 193.125 219.375 C 166.875 200.625 131.25 200.625 106.875 219.375 L 84.375 189.375 C 121.875 161.25 176.25 161.25 215.625 189.375 Z M 375 337.5 L 337.5 375 L 262.5 300 L 262.5 262.5 L 300 262.5 Z M 375 337.5 " fill-opacity="1" fill-rule="nonzero"/><path fill="#222e3c" d="M 150 300 C 67.5 300 0 232.5 0 150 C 0 67.5 67.5 0 150 0 C 232.5 0 300 67.5 300 150 C 300 232.5 232.5 300 150 300 Z M 150 37.5 C 88.125 37.5 37.5 88.125 37.5 150 C 37.5 211.875 88.125 262.5 150 262.5 C 211.875 262.5 262.5 211.875 262.5 150 C 262.5 88.125 211.875 37.5 150 37.5 Z M 150 37.5 " fill-opacity="1" fill-rule="nonzero"/><path fill="#222e3c" d="M 236.707031 251.273438 L 249.964844 238.015625 L 296.371094 284.417969 L 283.109375 297.675781 Z M 236.707031 251.273438 " fill-opacity="1" fill-rule="nonzero"/></svg>