<svg xmlns="http://www.w3.org/2000/svg" xmlns:xlink="http://www.w3.org/1999/xlink" width="368" zoomAndPan="magnify" viewBox="0 0 276 74.999997" height="100" preserveAspectRatio="xMidYMid meet" version="1.0"><defs><g/><clipPath id="7312337f80"><path d="M 0 8.238281 L 57.65625 8.238281 L 57.65625 65.894531 L 0 65.894531 Z M 0 8.238281 " clip-rule="nonzero"/></clipPath><clipPath id="e787217d9d"><path d="M 28.828125 8.238281 C 12.90625 8.238281 0 21.148438 0 37.066406 C 0 52.988281 12.90625 65.894531 28.828125 65.894531 C 44.75 65.894531 57.65625 52.988281 57.65625 37.066406 C 57.65625 21.148438 44.75 8.238281 28.828125 8.238281 Z M 28.828125 8.238281 " clip-rule="nonzero"/></clipPath></defs><path stroke-linecap="round" transform="matrix(0.57851, 0.477311, -0.477311, 0.57851, 48.980217, 48.435098)" fill="none" stroke-linejoin="miter" d="M 4.003259 4.000376 L 42.321433 3.999291 " stroke="#356c99" stroke-width="8" stroke-opacity="1" stroke-miterlimit="4"/><path stroke-linecap="round" transform="matrix(0.578083, -0.477829, 0.477829, 0.578083, 47.109242, 20.314756)" fill="none" stroke-linejoin="miter" d="M 3.999908 3.998319 L 38.981602 3.999045 " stroke="#356c99" stroke-width="8" stroke-opacity="1" stroke-miterlimit="4"/><g clip-path="url(#7312337f80)"><g clip-path="url(#e787217d9d)"><path stroke-linecap="butt" transform="matrix(0.75, 0, 0, 0.75, 0.00000552, 8.239889)" fill="none" stroke-linejoin="miter" d="M 38.437496 -0.00214373 C 17.208327 -0.00214373 -0.00000736 17.211399 -0.00000736 38.435359 C -0.00000736 59.664528 17.208327 76.872863 38.437496 76.872863 C 59.666664 76.872863 76.874999 59.664528 76.874999 38.435359 C 76.874999 17.211399 59.666664 -0.00214373 38.437496 -0.00214373 Z M 38.437496 -0.00214373 " stroke="#0d486c" stroke-width="30" stroke-opacity="1" stroke-miterlimit="4"/></g></g><g fill="#0d486c" fill-opacity="1"><g transform="translate(83.847054, 55.291997)"><g><path d="M 8.285156 0.320312 C 10.476562 0.320312 12.027344 -1.390625 12.027344 -3.527344 L 12.027344 -21.652344 L 14.703125 -21.652344 C 16.785156 -21.652344 18.390625 -22.667969 18.390625 -25.019531 C 18.390625 -27.425781 16.785156 -28.441406 14.703125 -28.441406 L 12.027344 -28.441406 L 12.027344 -32.023438 C 12.027344 -33.359375 12.617188 -34.320312 13.792969 -34.320312 L 14.328125 -34.320312 C 16.679688 -34.320312 17.910156 -35.390625 17.910156 -37.742188 C 17.910156 -39.882812 16.144531 -41.164062 12.992188 -41.164062 L 12.347656 -41.164062 C 7.484375 -41.164062 4.597656 -37.316406 4.597656 -32.824219 L 4.597656 -28.441406 L 3.421875 -28.441406 C 0.800781 -28.441406 -0.535156 -27.316406 -0.535156 -25.019531 C -0.535156 -22.773438 0.75 -21.652344 3.636719 -21.652344 L 4.597656 -21.652344 L 4.597656 -3.527344 C 4.597656 -1.390625 6.148438 0.320312 8.285156 0.320312 Z M 8.285156 0.320312 "/></g></g></g><g fill="#0d486c" fill-opacity="1"><g transform="translate(101.53876, 55.291997)"><g><path d="M 5.828125 0.320312 C 8.019531 0.320312 9.570312 -1.390625 9.570312 -3.527344 L 9.570312 -37.367188 C 9.570312 -39.453125 8.125 -41.164062 5.828125 -41.164062 C 3.636719 -41.164062 2.136719 -39.453125 2.136719 -37.367188 L 2.136719 -3.527344 C 2.136719 -1.390625 3.636719 0.320312 5.828125 0.320312 Z M 5.828125 0.320312 "/></g></g></g><g fill="#0d486c" fill-opacity="1"><g transform="translate(113.190698, 55.291997)"><g><path d="M 13.792969 0.75 C 17 0.75 19.300781 -0.320312 21.117188 -2.726562 L 21.222656 -2.726562 L 21.332031 -2.136719 C 21.703125 -0.855469 22.71875 0.320312 24.753906 0.320312 C 26.945312 0.320312 28.386719 -1.390625 28.386719 -3.527344 L 28.386719 -24.914062 C 28.386719 -27.050781 26.945312 -28.761719 24.753906 -28.761719 C 22.71875 -28.761719 21.703125 -27.585938 21.332031 -26.300781 L 21.222656 -25.714844 L 21.117188 -25.714844 C 19.191406 -28.121094 17 -29.1875 13.792969 -29.1875 C 6.574219 -29.1875 1.070312 -22.613281 1.070312 -14.21875 C 1.070312 -5.773438 6.523438 0.75 13.792969 0.75 Z M 14.753906 -6.308594 C 10.960938 -6.308594 8.554688 -9.621094 8.554688 -14.21875 C 8.554688 -18.765625 10.960938 -22.132812 14.703125 -22.132812 C 18.65625 -22.132812 20.957031 -18.765625 20.957031 -14.21875 C 20.957031 -9.621094 18.605469 -6.308594 14.753906 -6.308594 Z M 14.753906 -6.308594 "/></g></g></g><g fill="#0d486c" fill-opacity="1"><g transform="translate(143.656779, 55.291997)"><g><path d="M 5.988281 0.320312 C 8.125 0.320312 9.675781 -1.390625 9.675781 -3.527344 L 9.675781 -17.429688 C 9.675781 -20.367188 11.546875 -22.828125 14.328125 -22.828125 C 17.375 -22.828125 18.925781 -20.316406 18.925781 -17.480469 L 18.925781 -3.527344 C 18.925781 -1.390625 20.476562 0.320312 22.667969 0.320312 C 24.859375 0.320312 26.410156 -1.390625 26.410156 -3.527344 L 26.410156 -17.480469 C 26.410156 -20.527344 28.332031 -22.828125 31.058594 -22.828125 C 33.945312 -22.828125 35.65625 -20.476562 35.65625 -17.480469 L 35.65625 -3.527344 C 35.65625 -1.390625 37.207031 0.320312 39.347656 0.320312 C 41.539062 0.320312 43.089844 -1.390625 43.089844 -3.527344 L 43.089844 -19.460938 C 43.089844 -25.339844 39.078125 -29.1875 32.769531 -29.1875 C 29.992188 -29.1875 27.425781 -28.011719 24.644531 -25.445312 C 23.148438 -27.691406 20.15625 -29.1875 16.945312 -29.1875 C 13.472656 -29.1875 11.171875 -28.066406 9.730469 -25.820312 L 9.621094 -25.820312 L 9.570312 -26.300781 C 9.195312 -27.585938 8.074219 -28.761719 5.988281 -28.761719 C 3.796875 -28.761719 2.246094 -27.050781 2.246094 -24.914062 L 2.246094 -3.527344 C 2.246094 -1.390625 3.796875 0.320312 5.988281 0.320312 Z M 5.988281 0.320312 "/></g></g></g><g fill="#0d486c" fill-opacity="1"><g transform="translate(188.981765, 55.291997)"><g><path d="M 13.792969 0.75 C 17 0.75 19.300781 -0.320312 21.117188 -2.726562 L 21.222656 -2.726562 L 21.332031 -2.136719 C 21.703125 -0.855469 22.71875 0.320312 24.753906 0.320312 C 26.945312 0.320312 28.386719 -1.390625 28.386719 -3.527344 L 28.386719 -24.914062 C 28.386719 -27.050781 26.945312 -28.761719 24.753906 -28.761719 C 22.71875 -28.761719 21.703125 -27.585938 21.332031 -26.300781 L 21.222656 -25.714844 L 21.117188 -25.714844 C 19.191406 -28.121094 17 -29.1875 13.792969 -29.1875 C 6.574219 -29.1875 1.070312 -22.613281 1.070312 -14.21875 C 1.070312 -5.773438 6.523438 0.75 13.792969 0.75 Z M 14.753906 -6.308594 C 10.960938 -6.308594 8.554688 -9.621094 8.554688 -14.21875 C 8.554688 -18.765625 10.960938 -22.132812 14.703125 -22.132812 C 18.65625 -22.132812 20.957031 -18.765625 20.957031 -14.21875 C 20.957031 -9.621094 18.605469 -6.308594 14.753906 -6.308594 Z M 14.753906 -6.308594 "/></g></g></g><g fill="#356c99" fill-opacity="1"><g transform="translate(219.456421, 55.291997)"><g><path d="M 5.828125 11.816406 C 8.019531 11.816406 9.570312 10.050781 9.570312 8.019531 L 9.570312 -1.871094 L 9.675781 -1.871094 C 11.652344 -0.105469 13.738281 0.75 16.679688 0.75 C 24.003906 0.75 29.457031 -5.878906 29.457031 -14.21875 C 29.457031 -22.558594 24.058594 -29.1875 16.679688 -29.1875 C 13.417969 -29.1875 10.746094 -28.011719 9.355469 -25.714844 L 9.25 -25.714844 L 9.195312 -26.300781 C 8.765625 -27.585938 7.804688 -28.761719 5.667969 -28.761719 C 3.527344 -28.761719 2.136719 -27.050781 2.136719 -24.914062 L 2.136719 8.019531 C 2.136719 10.050781 3.636719 11.816406 5.828125 11.816406 Z M 15.71875 -6.308594 C 11.921875 -6.308594 9.570312 -9.621094 9.570312 -14.21875 C 9.570312 -18.816406 11.976562 -22.132812 15.664062 -22.132812 C 19.621094 -22.132812 21.917969 -18.765625 21.917969 -14.21875 C 21.917969 -9.621094 19.566406 -6.308594 15.71875 -6.308594 Z M 15.71875 -6.308594 "/></g></g></g><g fill="#fece3e" fill-opacity="1"><g transform="translate(249.925169, 55.291997)"><g><path d="M 8.554688 11.816406 C 10.371094 11.816406 11.332031 11.28125 12.617188 8.339844 L 24.539062 -20.902344 C 25.339844 -22.773438 25.820312 -24.164062 25.820312 -25.019531 C 25.820312 -27.265625 24.324219 -28.761719 22.027344 -28.761719 C 20.316406 -28.761719 19.03125 -27.53125 18.015625 -24.859375 L 12.9375 -11.652344 L 12.832031 -11.652344 L 7.589844 -25.820312 C 6.628906 -28.28125 5.078125 -28.761719 3.742188 -28.761719 C 1.65625 -28.761719 0.105469 -27.316406 0.105469 -25.285156 C 0.105469 -24.378906 1.28125 -21.703125 1.65625 -20.742188 L 9.035156 -2.296875 L 6.148438 4.4375 C 5.507812 5.828125 4.917969 7.21875 4.917969 8.445312 C 4.917969 10.210938 6.308594 11.816406 8.554688 11.816406 Z M 8.554688 11.816406 "/></g></g></g></svg>