<svg xmlns="http://www.w3.org/2000/svg" xmlns:xlink="http://www.w3.org/1999/xlink" width="368" zoomAndPan="magnify" viewBox="0 0 276 64.499998" height="86" preserveAspectRatio="xMidYMid meet" version="1.2"><defs><clipPath id="db87a2d005"><path d="M 10 14 L 87 14 L 87 64.003906 L 10 64.003906 Z M 10 14 "/></clipPath><clipPath id="a92e8eadbb"><path d="M 1.0625 9.132812 L 46.167969 9.132812 L 46.167969 54.238281 L 1.0625 54.238281 Z M 1.0625 9.132812 "/></clipPath><clipPath id="10f267b0a5"><path d="M 23.613281 9.132812 C 11.160156 9.132812 1.0625 19.230469 1.0625 31.6875 C 1.0625 44.140625 11.160156 54.238281 23.613281 54.238281 C 36.070312 54.238281 46.167969 44.140625 46.167969 31.6875 C 46.167969 19.230469 36.070312 9.132812 23.613281 9.132812 Z M 23.613281 9.132812 "/></clipPath></defs><g id="a360ce0295"><g clip-rule="nonzero" clip-path="url(#db87a2d005)"><path style="fill:none;stroke-width:7;stroke-linecap:round;stroke-linejoin:miter;stroke:#356c99;stroke-opacity:1;stroke-miterlimit:4;" d="M 3.502991 3.499982 L 33.016797 3.502707 " transform="matrix(0.57406,0.47364,-0.47364,0.57406,39.541334,40.374614)"/></g><path style="fill:none;stroke-width:7;stroke-linecap:round;stroke-linejoin:miter;stroke:#356c99;stroke-opacity:1;stroke-miterlimit:4;" d="M 3.498971 3.497168 L 30.382336 3.498461 " transform="matrix(0.573636,-0.474153,0.474153,0.573636,37.748734,18.37951)"/><g clip-rule="nonzero" clip-path="url(#a92e8eadbb)"><g clip-rule="nonzero" clip-path="url(#10f267b0a5)"><path style="fill:none;stroke-width:18;stroke-linecap:butt;stroke-linejoin:miter;stroke:#0d486c;stroke-opacity:1;stroke-miterlimit:4;" d="M 30.302078 0.0006575 C 13.569197 0.0006575 0.00128628 13.568568 0.00128628 30.306698 C 0.00128628 47.039579 13.569197 60.607489 30.302078 60.607489 C 47.040208 60.607489 60.608118 47.039579 60.608118 30.306698 C 60.608118 13.568568 47.040208 0.0006575 30.302078 0.0006575 Z M 30.302078 0.0006575 " transform="matrix(0.744231,0,0,0.744231,1.061543,9.132323)"/></g></g><g style="fill:#0d486c;fill-opacity:1;"><g transform="translate(66.651304, 45.939064)"><path style="stroke:none" d="M 6.480469 0.25 C 8.195312 0.25 9.410156 -1.085938 9.410156 -2.761719 L 9.410156 -16.9375 L 11.5 -16.9375 C 13.132812 -16.9375 14.386719 -17.730469 14.386719 -19.570312 C 14.386719 -21.453125 13.132812 -22.246094 11.5 -22.246094 L 9.410156 -22.246094 L 9.410156 -25.050781 C 9.410156 -26.09375 9.871094 -26.847656 10.789062 -26.847656 L 11.207031 -26.847656 C 13.046875 -26.847656 14.007812 -27.683594 14.007812 -29.523438 C 14.007812 -31.195312 12.628906 -32.199219 10.160156 -32.199219 L 9.660156 -32.199219 C 5.855469 -32.199219 3.597656 -29.191406 3.597656 -25.675781 L 3.597656 -22.246094 L 2.675781 -22.246094 C 0.628906 -22.246094 -0.417969 -21.371094 -0.417969 -19.570312 C -0.417969 -17.816406 0.585938 -16.9375 2.84375 -16.9375 L 3.597656 -16.9375 L 3.597656 -2.761719 C 3.597656 -1.085938 4.808594 0.25 6.480469 0.25 Z M 6.480469 0.25 "/></g></g><g style="fill:#0d486c;fill-opacity:1;"><g transform="translate(80.490727, 45.939064)"><path style="stroke:none" d="M 4.558594 0.25 C 6.273438 0.25 7.484375 -1.085938 7.484375 -2.761719 L 7.484375 -29.230469 C 7.484375 -30.863281 6.355469 -32.199219 4.558594 -32.199219 C 2.84375 -32.199219 1.671875 -30.863281 1.671875 -29.230469 L 1.671875 -2.761719 C 1.671875 -1.085938 2.84375 0.25 4.558594 0.25 Z M 4.558594 0.25 "/></g></g><g style="fill:#0d486c;fill-opacity:1;"><g transform="translate(89.605512, 45.939064)"><path style="stroke:none" d="M 10.789062 0.585938 C 13.296875 0.585938 15.097656 -0.25 16.519531 -2.132812 L 16.601562 -2.132812 L 16.6875 -1.671875 C 16.980469 -0.667969 17.773438 0.25 19.363281 0.25 C 21.078125 0.25 22.207031 -1.085938 22.207031 -2.761719 L 22.207031 -19.488281 C 22.207031 -21.160156 21.078125 -22.5 19.363281 -22.5 C 17.773438 -22.5 16.980469 -21.578125 16.6875 -20.574219 L 16.601562 -20.113281 L 16.519531 -20.113281 C 15.011719 -21.996094 13.296875 -22.832031 10.789062 -22.832031 C 5.144531 -22.832031 0.835938 -17.691406 0.835938 -11.125 C 0.835938 -4.515625 5.101562 0.585938 10.789062 0.585938 Z M 11.542969 -4.933594 C 8.574219 -4.933594 6.691406 -7.527344 6.691406 -11.125 C 6.691406 -14.679688 8.574219 -17.3125 11.5 -17.3125 C 14.59375 -17.3125 16.394531 -14.679688 16.394531 -11.125 C 16.394531 -7.527344 14.554688 -4.933594 11.542969 -4.933594 Z M 11.542969 -4.933594 "/></g></g><g style="fill:#0d486c;fill-opacity:1;"><g transform="translate(113.437752, 45.939064)"><path style="stroke:none" d="M 4.683594 0.25 C 6.355469 0.25 7.570312 -1.085938 7.570312 -2.761719 L 7.570312 -13.632812 C 7.570312 -15.933594 9.03125 -17.855469 11.207031 -17.855469 C 13.589844 -17.855469 14.804688 -15.890625 14.804688 -13.675781 L 14.804688 -2.761719 C 14.804688 -1.085938 16.015625 0.25 17.730469 0.25 C 19.445312 0.25 20.660156 -1.085938 20.660156 -2.761719 L 20.660156 -13.675781 C 20.660156 -16.058594 22.164062 -17.855469 24.296875 -17.855469 C 26.554688 -17.855469 27.894531 -16.015625 27.894531 -13.675781 L 27.894531 -2.761719 C 27.894531 -1.085938 29.105469 0.25 30.777344 0.25 C 32.492188 0.25 33.707031 -1.085938 33.707031 -2.761719 L 33.707031 -15.222656 C 33.707031 -19.824219 30.570312 -22.832031 25.636719 -22.832031 C 23.460938 -22.832031 21.453125 -21.914062 19.277344 -19.90625 C 18.109375 -21.664062 15.765625 -22.832031 13.257812 -22.832031 C 10.539062 -22.832031 8.742188 -21.957031 7.609375 -20.199219 L 7.527344 -20.199219 L 7.484375 -20.574219 C 7.191406 -21.578125 6.316406 -22.5 4.683594 -22.5 C 2.96875 -22.5 1.757812 -21.160156 1.757812 -19.488281 L 1.757812 -2.761719 C 1.757812 -1.085938 2.96875 0.25 4.683594 0.25 Z M 4.683594 0.25 "/></g></g><g style="fill:#0d486c;fill-opacity:1;"><g transform="translate(148.893443, 45.939064)"><path style="stroke:none" d="M 10.789062 0.585938 C 13.296875 0.585938 15.097656 -0.25 16.519531 -2.132812 L 16.601562 -2.132812 L 16.6875 -1.671875 C 16.980469 -0.667969 17.773438 0.25 19.363281 0.25 C 21.078125 0.25 22.207031 -1.085938 22.207031 -2.761719 L 22.207031 -19.488281 C 22.207031 -21.160156 21.078125 -22.5 19.363281 -22.5 C 17.773438 -22.5 16.980469 -21.578125 16.6875 -20.574219 L 16.601562 -20.113281 L 16.519531 -20.113281 C 15.011719 -21.996094 13.296875 -22.832031 10.789062 -22.832031 C 5.144531 -22.832031 0.835938 -17.691406 0.835938 -11.125 C 0.835938 -4.515625 5.101562 0.585938 10.789062 0.585938 Z M 11.542969 -4.933594 C 8.574219 -4.933594 6.691406 -7.527344 6.691406 -11.125 C 6.691406 -14.679688 8.574219 -17.3125 11.5 -17.3125 C 14.59375 -17.3125 16.394531 -14.679688 16.394531 -11.125 C 16.394531 -7.527344 14.554688 -4.933594 11.542969 -4.933594 Z M 11.542969 -4.933594 "/></g></g><g style="fill:#356c99;fill-opacity:1;"><g transform="translate(172.732391, 45.939064)"><path style="stroke:none" d="M 4.558594 9.242188 C 6.273438 9.242188 7.484375 7.863281 7.484375 6.273438 L 7.484375 -1.464844 L 7.570312 -1.464844 C 9.117188 -0.0820312 10.746094 0.585938 13.046875 0.585938 C 18.777344 0.585938 23.042969 -4.601562 23.042969 -11.125 C 23.042969 -17.648438 18.820312 -22.832031 13.046875 -22.832031 C 10.496094 -22.832031 8.40625 -21.914062 7.320312 -20.113281 L 7.234375 -20.113281 L 7.191406 -20.574219 C 6.859375 -21.578125 6.105469 -22.5 4.433594 -22.5 C 2.761719 -22.5 1.671875 -21.160156 1.671875 -19.488281 L 1.671875 6.273438 C 1.671875 7.863281 2.84375 9.242188 4.558594 9.242188 Z M 12.292969 -4.933594 C 9.324219 -4.933594 7.484375 -7.527344 7.484375 -11.125 C 7.484375 -14.71875 9.367188 -17.3125 12.253906 -17.3125 C 15.347656 -17.3125 17.144531 -14.679688 17.144531 -11.125 C 17.144531 -7.527344 15.304688 -4.933594 12.292969 -4.933594 Z M 12.292969 -4.933594 "/></g></g><g style="fill:#fece3e;fill-opacity:1;"><g transform="translate(196.566717, 45.939064)"><path style="stroke:none" d="M 6.691406 9.242188 C 8.113281 9.242188 8.867188 8.824219 9.871094 6.523438 L 19.195312 -16.351562 C 19.824219 -17.816406 20.199219 -18.902344 20.199219 -19.570312 C 20.199219 -21.328125 19.027344 -22.5 17.230469 -22.5 C 15.890625 -22.5 14.886719 -21.535156 14.09375 -19.445312 L 10.121094 -9.117188 L 10.035156 -9.117188 L 5.9375 -20.199219 C 5.1875 -22.121094 3.972656 -22.5 2.925781 -22.5 C 1.296875 -22.5 0.0820312 -21.371094 0.0820312 -19.78125 C 0.0820312 -19.070312 1.003906 -16.980469 1.296875 -16.226562 L 7.066406 -1.796875 L 4.808594 3.472656 C 4.308594 4.558594 3.847656 5.644531 3.847656 6.609375 C 3.847656 7.988281 4.933594 9.242188 6.691406 9.242188 Z M 6.691406 9.242188 "/></g></g><g style="fill:#2f2f2f;fill-opacity:1;"><g transform="translate(217.673221, 38.982998)"><path style="stroke:none" d="M 4.851562 0.25 C 6.691406 0.25 7.863281 -0.921875 7.863281 -2.886719 L 7.863281 -26.890625 C 7.863281 -28.855469 6.691406 -30.027344 4.851562 -30.027344 C 3.054688 -30.027344 1.839844 -28.855469 1.839844 -26.890625 L 1.839844 -2.886719 C 1.839844 -0.921875 3.054688 0.25 4.851562 0.25 Z M 4.851562 0.25 "/></g></g><g style="fill:#2f2f2f;fill-opacity:1;"><g transform="translate(227.416436, 38.982998)"><path style="stroke:none" d="M 4.851562 0 L 13.046875 0 C 20.03125 0 26.554688 -5.269531 26.554688 -15.011719 C 26.554688 -23.5 20.910156 -29.773438 13.089844 -29.773438 L 4.851562 -29.773438 C 3.179688 -29.773438 1.839844 -28.519531 1.839844 -26.847656 L 1.839844 -2.925781 C 1.839844 -1.253906 3.179688 0 4.851562 0 Z M 7.863281 -5.5625 L 7.863281 -24.210938 L 12.335938 -24.210938 C 17.019531 -24.210938 20.074219 -20.824219 20.074219 -15.097656 C 20.074219 -8.949219 17.019531 -5.5625 12.085938 -5.5625 Z M 7.863281 -5.5625 "/></g></g><g style="fill:#2f2f2f;fill-opacity:1;"><g transform="translate(255.015249, 38.982998)"><path style="stroke:none" d="M 4.851562 0 L 15.597656 0 C 17.269531 0 18.527344 -1.128906 18.527344 -2.800781 C 18.527344 -4.558594 17.3125 -5.5625 15.554688 -5.5625 L 7.863281 -5.5625 L 7.863281 -12.167969 L 14.761719 -12.167969 C 16.519531 -12.167969 17.6875 -13.214844 17.6875 -14.929688 C 17.6875 -16.683594 16.433594 -17.730469 14.761719 -17.730469 L 7.902344 -17.730469 L 7.902344 -24.210938 L 15.304688 -24.210938 C 16.976562 -24.210938 18.234375 -25.214844 18.234375 -26.972656 C 18.234375 -28.644531 16.976562 -29.773438 15.304688 -29.773438 L 4.851562 -29.773438 C 3.179688 -29.773438 1.839844 -28.519531 1.839844 -26.847656 L 1.839844 -2.96875 C 1.839844 -1.253906 3.179688 0 4.851562 0 Z M 4.851562 0 "/></g></g></g></svg>