<svg xmlns="http://www.w3.org/2000/svg" viewBox="0 0 894.83 372.82"><defs><style>.cls-1{fill:#1a171b;}.cls-2{fill:#bd0e2e;fill-rule:evenodd;}</style></defs><title>logo_us_color</title><g id="Capa_2" data-name="Capa 2"><g id="Capa_1-2" data-name="Capa 1"><path class="cls-1" d="M318.88,346.3a19.71,19.71,0,0,0,10.41-8.49h.13v27.38c0,2.77-.2,5,2.44,6.7V372h-10.2v-.15c3-1.46,2.87-3.73,2.87-6.7V346.45h-5.65Z"/><path class="cls-1" d="M358,346h-.14c-1.81-1.94-5.15-2.08-7.74-2.08l-5.29.29-.43,8a17.48,17.48,0,0,1,4.71-.64c6.36,0,11.76,3.6,11.76,10.41,0,6.49-6.22,10.87-14.43,10.87a27.4,27.4,0,0,1-6.28-.78l-2.27-5a18.14,18.14,0,0,0,8.5,1.95c4.48,0,8.94-2,8.94-7.13,0-4.66-4.46-6.56-8.47-6.56a19.44,19.44,0,0,0-7.42,1.61l1.06-16.86H358Z"/><path class="cls-1" d="M365.39,356.16c0-9,4.43-16.85,13-16.85,9,0,12.82,8.69,12.82,16.56s-3.88,16.95-13,16.95c-7.63-.1-12.78-7.69-12.78-16.66m5.2-.49c0,4.91,1.6,13.35,7.87,13.35,4.82,0,7.55-5.92,7.55-12.76s-2.94-13.07-7.84-13.16c-6.12,0-7.58,7.87-7.58,12.57"/><path class="cls-1" d="M416.33,346h-.15c-1.79-1.94-5.15-2.08-7.73-2.08l-5.29.29-.44,8a17.49,17.49,0,0,1,4.72-.63c6.38,0,11.76,3.59,11.76,10.4,0,6.49-6.22,10.87-14.45,10.87a27.29,27.29,0,0,1-6.25-.78l-2.29-5a18.41,18.41,0,0,0,8.51,1.93c4.46,0,8.94-2,8.94-7.13,0-4.66-4.48-6.56-8.46-6.56a19.54,19.54,0,0,0-7.44,1.61l1.06-16.86h17.51Z"/><path class="cls-2" d="M452.84,256.41l31.73.21v10.3s-2.77-3.72-6.57-3.72-13.78.61-13.78.61v16.68h13.71l1.33-.31v9.29l-2.77-2.1-12.1,0v20.7s4.32,2.15,11.67,2.15,16.62-5,16.62-5L492,307l-3.39,9.6H450.81s4.13-2.73,4.08-5.89,0-48.2,0-48.2.23-4.88-3.34-4.88c.83-1.16,1.29-1.17,1.29-1.17"/><path class="cls-2" d="M372.05,283.92c0-16.68-13.5-24.28-21.27-26.44-6.52-1.71-14.71-1.37-18.82-1.34l-12-.09s-.45,0-1.24,1.17a2.78,2.78,0,0,1,2.23,1c.18.34.39.69.55.95A6.14,6.14,0,0,1,322,261v48.3c-.4,2.84-3.91,5.12-3.91,5.12h24.41s29.59,1.35,29.59-30.46m-26.91,23.25H334.07a17.54,17.54,0,0,1-2.84-1V286.09h13.09l1.31.62v-8.07l-1.31.76H331V263.22s14-.74,19.74,1.69,12.2,8.32,12.2,19.74c0,19.67-17.84,22.52-17.84,22.52"/><path class="cls-2" d="M719.25,317.06h18c-3.66-.54-6.61-7.14-6.61-7.14l-21-52.24H695.8c3.49,1.48.71,8.52.71,8.52s-13.64,33.43-16.43,40.71-7.23,9.7-7.23,9.7l-.31.37h16.08a10,10,0,0,1-2.19-2.16c-1.34-2-.21-5.54-.21-5.54l5.89-14.63h23.06s4.68,13.26,6.29,17.27a3.57,3.57,0,0,1-2.21,5.14m-25.44-27.92,9.63-23.63,8.84,23.64Z"/><path class="cls-2" d="M492.35,256.45H505v3.91l15.41,40.95,1.07,3.45,1.21-.85,14.14-38.16s1.71-5,.2-6.93a17.59,17.59,0,0,1-1.69-2.28h12.41l-.86,3.7-22.8,58.27s-7.85-1.9-11.4-12.15c-3.2-9.22-15.57-41.69-15.57-41.69s-1.58-3.2-3.06-5.65c-.68-1.13-1.82-1.09-1.75-2.56"/><path class="cls-2" d="M553.68,256.38h15.83l.74.75s-3.41,2.35-3.41,4.65c0,1.84,0,49.92,0,49.92s.79,2.9,1.78,3.4a4,4,0,0,1,1.54,1.33H554v-1s3.17-1.36,3.17-4.18-.42-48.8-.42-50c0-2.64-3.07-3.43-3.07-3.43Z"/><path class="cls-2" d="M605.84,310.26c-5.91,0-9.89-.66-11.19-1.19,0-10.76,0-45.91,0-47.47,0-2.28,3.41-4.64,3.41-4.64l0-.43H580.84v.52c0,.08,2.45.78,3.28,2.4a6.4,6.4,0,0,1,.48,1.67c0,.35,0,4.16.08,9.56,0,13.13,0,37.69,0,40,0,3.77-4.08,5.89-4.08,5.89h37.78l3.38-9.59.71-1.69s-7.63,5-16.63,5"/><path class="cls-2" d="M653.73,310.26c-5.93,0-9.9-.66-11.19-1.19,0-10.76,0-45.91,0-47.47,0-2.28,3.43-4.64,3.43-4.64l0-.43H628.72v.52c0,.08,2.45.78,3.27,2.4a6.44,6.44,0,0,1,.49,1.67c0,.35,0,4.16.06,9.56,0,13.13,0,37.69,0,40,0,3.77-4.08,5.89-4.08,5.89h37.77l3.4-9.59.72-1.69s-7.65,5-16.64,5"/><path class="cls-2" d="M437.81,261V250.15s-8.23-2.38-14.8-2.38-25.66,1.22-25.66,19.12c0,18.73,35.26,16.53,35.26,33.52,0,5.22-7.76,9.95-15.39,9.95-10.79,0-21.45-8-21.45-8l2.59,12a50.47,50.47,0,0,0,17.09,3.36c9,0,28.11-5.05,28.11-20.61,0-20.94-35.07-18.32-35.07-32.73,0-6.09,4.94-9.45,12.77-9.45,9.09,0,16.55,6.06,16.55,6.06"/><path class="cls-2" d="M318.05,159.59h17.86v.74s-3.76.18-3.76,5.42V207.8s1.15,12.42,15.09,12.42c17,0,18.36-10.44,18.36-10.44l0-42.81s-.6-7-3.82-7c0-.67.29-.28.29-.28h17.58v.63a4.15,4.15,0,0,0-3.53,4.3v55.08c0,2,.36,4.08,2.32,5.52s1.55,1.56,1.55,1.56H365.7v-6.43h-1.36s-5.65,7.68-18.46,7.68c-14.56,0-23.81-8.24-23.81-20.26V165.59s-1.35-5.18-4-6"/><path class="cls-2" d="M389.07,167.81v-.66h12.45l35.55,45.61V172.89s-1.48-4.62-3.65-4.95v-.82h14.76v.7s-3.87,1.08-3.87,5.93-.6,55.58-.6,55.58h-1.33s-4.85-2-16.62-16.56-25.25-32.11-25.25-32.11l-.42-.31v40.84s2,5.07,4.26,5.07V227h-15.8v-1s3.86-2.73,3.86-5,.41-46.77.41-46.77-.55-5.26-3.75-6.51"/><path class="cls-2" d="M457.59,167.06l15.66.24v.57s-3.09.72-3.09,3.69v49.91s.3,3.5,2.9,4.55v1H457.51l0-1a5.21,5.21,0,0,0,3.3-4.81v-49.4s-1.06-2.87-3.23-3.9a1.3,1.3,0,0,1,0-.81"/><path class="cls-2" d="M693.44,167.05l15.65.25v.58s-3.07.69-3.07,3.68v49.92s.31,3.5,2.9,4.54v1H693.34l.07-1a5.22,5.22,0,0,0,3.31-4.81v-49.4s-1.08-2.87-3.23-3.89a1.59,1.59,0,0,1,0-.83"/><path class="cls-2" d="M478.57,167.13h12.52a13,13,0,0,0,.39,3.69c.48,1.65,16.87,44.56,16.87,44.56l15.37-40s.09-5.3-1.35-6.42-1.54-1.93-1.54-1.93H534.4l-24.83,63.15s-6.51-2.25-10-10.4c-2.83-6.53-17.77-47.12-17.77-47.12l-3.3-4.45Z"/><path class="cls-2" d="M540.93,167.36l31.76.21v10.3s-2.78-4-6.54-4-13.82,0-13.82,0v17.54H566l1.34-.32v9.29l-2.76-2.09H552.5l-.07,20.78s4.33,2.13,11.69,2.13,16.68-5,16.68-5l-4.1,11.3H538.94s4.12-2.71,4.06-5.89,0-48.22,0-48.22.25-4.83-3.34-4.83c.85-1.18,1.27-1.21,1.27-1.21"/><path class="cls-2" d="M587.68,168s16.39-.57,20.61-.57,18.76,2.67,18.76,15.51c0,10.17-13.68,14.64-13.68,14.64l-.49,1.19s11.76,16.36,17.46,21.18a92.26,92.26,0,0,0,10,7.47H628.53s-3,.35-13.94-12.47-12.7-18.62-12.7-18.62,15.13-2,15.13-12.79c0-7.78-7.28-10.11-7.28-10.11s-9.78-1.57-9.78.44V223s1.92,4.41,3.51,4.41H586.73s3.67-.93,3.67-10.46V173s-1.27-4.3-2.72-4.93"/><path class="cls-2" d="M740.27,168.07H717.79l3.41,3.56-.05,51.4-3.37,4.66h21.37c14.65,0,33.66-6.3,33.66-31.21,0-26-25.36-28.41-32.54-28.41m2.67,52.39H730.55l-.08-45.36s33-6.49,33,22.15c0,22.9-20.53,23.21-20.53,23.21"/><path class="cls-2" d="M818.26,227.54h18c-3.71-.53-6.61-7.15-6.61-7.15l-21-52.2H794.8c3.49,1.44.74,8.48.74,8.48s-13.67,33.45-16.44,40.73-7.23,9.7-7.23,9.7l-.33.37h16.07a10.91,10.91,0,0,1-2.18-2.18c-1.33-1.95-.21-5.53-.21-5.53l5.9-14.62h23s4.68,13.27,6.32,17.26a3.6,3.6,0,0,1-2.23,5.14M792.8,199.6,802.45,176l8.82,23.63Z"/><path class="cls-2" d="M679.42,177.65v-9.74a57.86,57.86,0,0,0-13.31-2.14c-5.94,0-23.08,1.1-23.08,17.21,0,16.82,31.75,14.87,31.75,30.13,0,4.68-7,8.95-13.83,8.95-9.72,0-19.33-7.21-19.33-7.21l2.32,10.8a45.7,45.7,0,0,0,15.41,3c11.45,0,25.27-4.55,25.27-18.52,0-18.83-31.55-16.5-31.55-29.45,0-5.5,4.43-8.48,11.49-8.48,8.16,0,14.86,5.43,14.86,5.43"/><path class="cls-2" d="M862.3,168.07H839.78l3.42,3.56V223l-3.42,4.66h21.4c14.62,0,33.65-6.3,33.65-31.21,0-26-25.39-28.41-32.53-28.41M865,220.46H852.58l-.11-45.36s33-6.49,33,22.15c0,22.9-20.5,23.21-20.5,23.21"/><path class="cls-1" d="M240.67,294.41a17.68,17.68,0,0,0,2.09-.83c-.71.29-1.43.57-2.15.83Z"/><path class="cls-1" d="M234.93,250.09c-20.21-7.1-35-16.08-35-40.65.91-9.22,3.85-15.89,5.55-17.71,1-1-1.91-.07-4.68,3.29a5.19,5.19,0,0,1,1.27-2.56c5.41-5.85,8.37-9.47,8.37-10.61,1.4-2.26.38-1.72-1.73-.58-3.39,2.81-2.72,1.64-5,5.19-.4.63-1.26-.14-1.69.47-4.15,3-6,11.1-4,12.76a19.66,19.66,0,0,0-1.39,4.92c-.66,4.29-1,8-1.45,10.47-1.48-8.79-2.87-17.72-3.87-24.42,0-.47-.55-2.32-.62-2.77-.16-1.14.05-2.42-.48-3.6a4.73,4.73,0,0,1-.47-2.78c.73-4.26-.44-7-.9-9.79-.08-.5-.65-.4-.77.47-.19,1.44-.26,4.38-.68,5.21-.13.23-.89-4.55-1.3-5.29-.12-.21-.24-.73-.46-1.23a3.92,3.92,0,0,0-.38-.91,3.08,3.08,0,0,1-.4-.84c-.12-.29-.06-.72-.17-1s-.5-.75-.68-1.19c-1-2.48-2-5-2.35-4.52s.7,5.37,1.4,6.91A61.35,61.35,0,0,1,187.17,183c.14.74.65,3.12.8,3.83s.24,1.78.39,2.57.21,1.91.34,2.53c.29,1.62.23,2.36.45,3.3a15.51,15.51,0,0,0,.75,3.36c.65,1.62.65,5.09,0,4-.32-.55-3.09-4.16-4.07-4.76-.33-.19-.66-.44-1-.66-2.87-2-6.09-4.86-6.09-2.8,4.72,2.38,9.76,11.19,11.48,16.35a65.39,65.39,0,0,0,.27,7.17c.11,1.36-1.11,2.1-.83,3,.21.67,1.82,2.11,2.13,2.67.86,1.55,2.22,2.52,4.1,4.52a9.64,9.64,0,0,0,.93,1.87c0,5.17,32.12,17.5,12,15.24-4.28-2-10.7-5.94-12.56-5.94,0,4.16,15.58,12.45,25.46,15.05,1.58-1.61-10.15-4.68-7.38-4.68,2-.06,20.54,2.18,20.54.41"/><path class="cls-1" d="M184,69.54c.35.66.71,1.26,1,1.84,4.38-.74-1-4.41-1-1.84"/><path class="cls-1" d="M188.67,66.16c.29.23.56-.07.73-.16s.21,0,.34.09.3,0,.43-.06c4.24-2.48-4.19-3.32-1.81-.17.1.15.1.14.31.3"/><path class="cls-1" d="M151.57,208.51c1.09-.73,1-.6,1.52-1.48s.64-1.36-.29-2.35c-2.81-2.84-5.42-5.7-11.39-19.1-1.89-4.26-2.74,7.25-1.35,14.47,2.12,11,3.2,13.06,5.22,15.36,3.55,4,9.15,11,9.15,11s3.58,4,2.53-.55-4.51-7.81-7.6-9.94-1.86-4.4-1.86-4.4,1.59-1.23,4.07-3"/><path class="cls-1" d="M156.38,237.5c-.26-1.87-1.84-7.16-3-8.64S142.22,217,141,215.49s1.62,8.36,1.62,8.36.08.11.22.34c-.4.57-.29,2.58-.47,2.62,1.42,3.63,9.62,6.51,12.18,10.18,1,.83,1.89.94,1.82.51"/><path class="cls-1" d="M153.17,238.6c-2-1.73-5.72-4.28-7.39-4.28a10.87,10.87,0,0,0-4.12,1.41s-1.54,7.56-1.54,10.11-.33,7.82,1.65,5.94,2.87,1.45,4.56,1.45,0,3.08,5.13-2.58a17.38,17.38,0,0,0,4-6.9s.81-2.39-2.3-5.15"/><path class="cls-1" d="M135.78,259c-5.77,1.86-6,2.15-9.81,2.74-7.25,1.1-4.85-11.46-8.51-7.27s-5.35,6.83-5.32,12.64c0,3.16-3.41,4.16.84,7.21s5.71-.15,11.69-.39,4.46-1.8,9.54-2.88,8.31-3.36,9.53-9.17,3.95-5.14-.37-6.37-2.21,1.76-7.59,3.49"/><path class="cls-1" d="M251,250.4l6.86,3.79c1.1.6,5.5,3.88,1.93,0-3.39-3.67-19-11.12-22.52-20.81-.61-1.73-4-4-4-4,.21-2.23-.71-2.31-.59-4l-.19-1.07.26-2.91c.44-5.09,9.19-15.75,10.26-19.83.16-.61.64-1.84-2-2.05-8.11-.63-12.41-6.06-14.46-7.91-.4-.36-.68.19-.66.82.06,3-.08,7.38-.1,10.07-.32-.13-.67-.23-1.05-.35-1.78-.52-7.22-.61-10-.61a15.26,15.26,0,0,0-7.35,2.28c-1.38,1-7.48,3.36,1.92,1.19a31.09,31.09,0,0,1,6.69-.87,24.34,24.34,0,0,1,5.72,1.33c1.67.49,3.19,1,4.39,1.42.69,3.31,2.16,6.61,3,10.58a65.1,65.1,0,0,1,1.27,10.19s3.77,6.86,5.91,11.42c1,2.13,3,4,6.07,6.14a1.05,1.05,0,0,0-.19.58c-.08.65-.68-.65-3.22-1.09-1.23-.21-2.45-.29-3.15-.49a14.07,14.07,0,0,1-2.32-.78c-1.94-.89-3.24-1.38-5.46-2.21-4.64-2.71-7.44-2.38-9.4-4.22-3.54-2.68-7.37-6.75-8.3-5.49a6.62,6.62,0,0,0,1.87,2.68c.32.34.61.34,1,.71s.57,1,.87,1.23c.47.39,1.39.6,2.09,1.16s1,.59,1.54,1.05c.22.16.57.78.77.94a31.89,31.89,0,0,0,3.61,2.36c-.06.22,1.49,1.16,2.09,1.3a2,2,0,0,0,1.3,1c.66.69,2.53,1.32,3.82,1.75a4.65,4.65,0,0,0,2.2.91c1.07.73,3.25.78,4.24,1a31.8,31.8,0,0,0,9,3.06c2.45,1,6.8,1.24,6.18-.17a.21.21,0,0,0,.12-.08"/><path class="cls-1" d="M220.26,171c.11,2.56.49,5.12,1.64,6.59-.08-.2-.15-.4-.22-.61a51.56,51.56,0,0,1-1.42-6"/><path class="cls-1" d="M166.92,329.43l3.26-.2s2.64.93,5.1,1.84,8.35,5.44,9.15,6.15,4.86,6.48,5.67,7.28a13.93,13.93,0,0,1,2.67,4.65c.83,2.2.09,4.29-1.23,4.71-4.26,1.43-5.39-1.46-5.48-2.4s-.35-1,.56-2.56,3,.61,2.67-1.38-2.76-1.87-2.76-1.87-5.22.85-5.09,6,3.31,6.76,6.56,7.71,7-.47,8.25-2.8c4.84-9.31-1.36-18.46-1.5-18.82-2.53-6.5-10.56-13.4-10.56-13.4a15.76,15.76,0,0,1-1.64-2.58c-.31-.93,11,7.49,13.68,13.37,1.63,3.4,2.26,5,2.38,7.54s-.12,3,1,3.65,1.31-2.31,2-2.31,1.92-1.53,1.92-1.53a32.78,32.78,0,0,0,.63-6.58,30.68,30.68,0,0,0-1.8-10.28c-.91-2.2.83-.68.83-.68s2-.5,4,8.07-1.43,13-.95,13.57,1.88-1.7,2.57-2.61.87-2.32,1.2-4.77,2-9.34,2.49-10.1,1,2.81.74,8.58-1.22,5.15-2.25,8.87c-.66,2.29-2.47,7.1,2.88-.33,2.13-3,3.6-9.91,3.76-11.06.35-2.52,1.77-5.29,2.69-4.92s-.56,3.13-.88,5.13-2.42,8.19-2.81,9.22a30.77,30.77,0,0,1-1.49,3.37c-.37.69,4.69.4,12.73-20.15.3-.75,2-2.91,2.12-3.71.2-1.91.17-2.06-.52-2.69-.4-.34-.5-1-1.71-1.07a4.55,4.55,0,0,0-2.26.21c-1.28.33-.58,2.19-1.61,3s-6.7,1.23-8.05.86a25.74,25.74,0,0,0-3.6-.58c-.94-.12-.68-1.48-.68-2.45s-.36-1.95-1.15-1.95-2.44-3.43-4-3.69-3-1-3.65-1a7.37,7.37,0,0,1-4.63-2.61c-1.53-1.88-8.37,0-10.35-.14-1.21-.09-7.05,2.86-8.56,2.87-.49,0-1.69.73-2.65.73-.45,0-1.4.85-1.82.84-2.43-.08-3.44.18-3-.24,1.17-1.17,8.22-2.69,9.05-3.18,7.8-4.83,7.76-1.83,8.76-3.42.64-1.4,5.19-1.11,4.73-2.53s-6-.53-7.2-.53,0-1-8,2.33c-1.3.55-4.79,4.16-8.43,3.27-1.38-.34-9.22,1-11,2.84-1.5,2.37-2,1.44-2.14,2.93s0,2.32.34,2.43,4,0,4,0,4.54,1.53,4.84,5.22c.13,1.83-1.7,1.38-1.7,1.38s-1-1.52-.7-2.19-.35-1.29-1.5-.84-.94,3-.94,3,.34,3.37,5.08,2.39"/><path class="cls-1" d="M182,360.13s-3.34-2.15-3.63-5.39-2.55-2.33-2.55-2.33-1,5.13,2.27,7.93c4.22,3.67,8.7,4.91,7.86,3.16s-4-3.37-4-3.37"/><path class="cls-1" d="M176.87,347.92c-2.28-.88-9.89-2.38-9.89-2.38s1.1,3.84,4.23,3.84A51.43,51.43,0,0,1,178,350s1.1-1.17-1.1-2"/><path class="cls-1" d="M180.42,339.08c-1-.8-1.67-1.73-2.48-2.34-4.26-3.24-6.88-4-6.88-4a2.3,2.3,0,0,0-2,.5c-.37.34-.78.6-.93.94-.41.92,1.3,1.76,1.73,1.94a16.27,16.27,0,0,1,3.82,1.57,20.87,20.87,0,0,1,3.83,2.1,75.17,75.17,0,0,0,6.77,5s2.3-.78-3.9-5.75"/><path class="cls-1" d="M179.37,347.63s.57.29,2.53-.59-6.19-5-8.46-6.76-7.31-2.68-7.31-2.68-1.15-.28-1.15,2.08a6.56,6.56,0,0,0,1.15,3.81,16.64,16.64,0,0,1,6.78,1.33c3.07,1.48,6.46,2.81,6.46,2.81"/><path class="cls-1" d="M242.88,329.43c.79-2.3,8.78-14.38,8.2-16.89s-3.77-1.24-4.63-1.68-.63.41-2.27.41-2.42-2.86-3.57-1.56-3.27-.25-4.15,0-1.77.18-.94,1.94c.12.25-4.12,3.3-4.53,5s4,5,3.58,6.36a148.08,148.08,0,0,1-7.41,17.58c-1,1.87-3.78,5-4.47,6.38a10.08,10.08,0,0,0-.67,3.12c-.05.51,4.67,1.59,6.5,3.88a4.73,4.73,0,0,0,1.3,1.32,13.18,13.18,0,0,1,1.46,2.14c1.48,3,2.75,6.05,5.19,6.08a5,5,0,0,0,4.26-3.58c.49-2,.66-4.23-2-5.92a3.67,3.67,0,0,0-4.76.8s-.78,1.26.16,2.06.45-.95,1.53-1,1.08.16,1.53.51,1.65,1.86-.41,3.67c-.61.56-1.95.3-2.86-.85a6.8,6.8,0,0,1-1.07-3.55,7.36,7.36,0,0,0-.21-1.3c1.13-.49,2-1.34,3.1-1.67,1.32-.47,3.46-.87,4.5-.44,3.1,1.31,3.84,1.69,5.18,3.19s1.68-3.86.59-4.46-2.93-.35-4-2.17-2.38-4.55-3.56-5.18-3.22-1.27-3.61-1.11-1.36.55-.43,2.05,2.49,2.56.51,1.94-3.33-1.42-2.72-3.24a4.76,4.76,0,0,1,3.15-3c1-.36,2.93.67,3.87,1.8s4.2,1.78,3.95.15-1.3-6.13-1.91-6-1.38-.36-1.58-2.18,2.52-2.2,3.27-4.51"/><path class="cls-1" d="M247.29,294.2a31.82,31.82,0,0,0-8.58,5c-4.05,1.6-11.62,4.49-16,4.1-3.85-.35-2.23,1.1-7.17.53s-8.51,2.94-11.91,2.53c-2.4-.28-.09,0-4.62,0-3.14,0-3.07,1.52-2.76,2.47.15.41,2.19.62,4.88.93s5.9,2.79,8.45,4.1,3.54,4.48,4.24,5.49,4.66,1.16,7.51.87,3.68-2.17,5.23-5.94,3.69-3.89,6.23-6.07c.18-.15.4-.34.62-.56,4.51-.92,7.89-1.81,8.75-1.63,2.37.44,4.23,2.43,6.45,2.29s2.33.21,2.73-.65-.57-.76-2.16-1.91c-4.19-3,2.16-5.84,4.39-4s-2.23,2.66.75,3.11c2,.3,3.35-2.35,2.68-5.48s-3.71-7.42-9.74-5.18"/><path class="cls-1" d="M239,366.27c-.2-.32-.69-.58-1.79-.63-2.88-.13-2.16-.6-4-1.35s-.78.36-1.81-3.87a10.12,10.12,0,0,0-7.48-7.65,37.41,37.41,0,0,0-7.6-.58c-1.33.25,1.88,1.93,3.47,2.12s4-.68,5.18.94,1.92,2.39,1.85,3.42-.15,2.62-1.48,2.94-.8.74-3,1c-1.52.16-2.18.35-3.39-.73s-1.85-2.52-.94-3.67,2.86-2.29,1-2.79-5.31-3-6.76-2.25-4.15-.43-5.69.56a29.37,29.37,0,0,1-3.65,1.72c-1.28.64-1.3,1.32-1.3,1.32s-.45,1,.37,1.09,2-.89,3.85-.44,6.08,4.66,6.48,5.28a9.84,9.84,0,0,1,1.4,2.93.17.17,0,0,1,0,.07c-1.47,0-3,0-4.47,0a3,3,0,0,0-2.62-1.22c-1.62.06-1.76-.89-3.09-2.09-.58-.53-1.18-2.45-2.29-3.31s-6.2,1.11-6.85,1.57-2.53,1.57-5.56,4a10.42,10.42,0,0,1-1.27.92l-7.82-.08c-.13-.07-.27-.12-.4-.2a8.22,8.22,0,0,1-4.2-4.74c-.61-1.36-.57-4.69-.61-6.53s-.71-1.9-1.88-1.95-.68,2.62-.53,4.64-.88,3.92-.2,7.16c.52,2.5,1.3,5.6,2.09,5.54h.15a5.4,5.4,0,0,0,4.61,2.42c-5.69.55,51.11.63,56.14.15,3.15.3,4.67-3.4,4.31-5.16a1.29,1.29,0,0,0-.27-.55"/><path class="cls-1" d="M397.92,129c-4-7.5-19.84-21.21-28.69-27-3.39-2.23-7.52-3.76-11.51-5.78-2.68-1.33-5.09-3.21-7.94-4.43C345,89.7,341.15,89,337.65,87.71s-7-3.08-10.45-4.09c-4.77-1.42-9.23-1.89-13.64-2.87-1.88-.42-3.9-1.55-5.65-1.87a93.63,93.63,0,0,0-10.29-1c-2.44-.23-4.83-.89-6.68-.82-6.9.22-21.9-2.66-23.79,7.25.12,2.11,1.44,5.67,1.32,8.54-.2,5.13-8.44,7.69-11,7.72-7.74.14-14.21-.6-22.8,7.41-8.14,7.62-8.75,24.32-8.92,24.38-.3,2-.21,3.22.14,3.88-.21.14-.37.21-.51.17-1.14-.36-.38-3.1-.38-6.5a36.91,36.91,0,0,0-.78-6.81c-.37-2.3,4.18-14.62,8.1-17.24,1.59-1.07,2.8-2.2,2.55-2.54-1.51-2-9.1-.73-12.17,1.48-1,.74-2,.58-3.77,2.4-.3.31-1.27,1.43-2.17,2.35-.52.55-1.65,1.6-2.1,2.09a14,14,0,0,1-3.35,2.55S205.62,118,208.1,117c3-1.16,4.23-.59,5,.6s3,6.81,3,10.19-1.85,6.44,0,5.68,1-6.46,1-6.46l-.5-7.14s.3-1.82.49-1.37A14.26,14.26,0,0,1,218,121c1.21,4.27.84,16.38-.71,19.23a10.32,10.32,0,0,0-.18,8.06c1.52,2.93-.09,1.75-1,1.09a35.44,35.44,0,0,1-4.62-3.81c-1.47-1.52-1.84-3.36-1.31-4.17,1.07-1.73,1.54-1,2.75-1.17.62-.09-.38-1.34-2.41-2.79-.2-.17-.92-.13-1.44-.59a5.09,5.09,0,0,0-.69-.62c-.32-.23-1.22-.25-1.53-.64a11,11,0,0,0-2.22-1.91c-.51-.48,1.57-.26,3.28,0a6.26,6.26,0,0,0,3-.15c.47-.3.91-.65.55-.76-2.09-.59-6.91-1.12-8.72-1.62-2.37-.68-2.9,0-5.06-1.51s-1.09-6.78-1.09-6.78l3.07.06,1.84-1.34c.08.18.25.22.61,0a5.25,5.25,0,0,0,.79-.79.91.91,0,0,0,.55-.63c1.21-1.39,2.87-3.34,3.11-3.5s.48-.92.86-1.19.91-.07,1.25-.34.65-.56,1-.86.59-.58.87-.87a17.83,17.83,0,0,0,3.51-5.39c.5-1.19-.11-2.64,2.45-3.53s2.94-.57,3.57-1.11a5.85,5.85,0,0,0,1.78-2.72c.26-1.21.15-.7-.56-2.85s-1.22-3.2-2.09-3.2-1.12-3.07-.85-4,.95-1.78-.13-2-2.67,1.84-2.22,0,1.58,0,1.58-1.12,3.09.61,3.87-2-.05-7.12-1.34-8.33-2.64-2.89-1.87-3.44,2.44-1.6.95-3.17c-2.41-2.51-1.2-4.46-2.29-6.81-3.59-7.72-7.39-7.4-8.24-7.5s-1.36,1.52.12,4.08.24,2.36.1,2.31l-2.79-.85c-.86-.27-1.11,1,.48,3.48s3.33,3.69,3.47,4.88.76,1.54-.42,1.54-3.56-.73-3.89-.61c-3.65,1.34,1,8.33-.37,8.25-.46,0-2.68-4.84-3.7-5.86s-.95-2.22-.69-3.85a5.86,5.86,0,0,0-1.08-3.75c-.34-.62-2.35-2-.18-4.35s4-2.38,3.06-2.64-3.17-1.33-3.7-1.49-1-.26-1.08.66a5.05,5.05,0,0,1-.89,3.26c-.86,1-.6,2.32-1.41,2.17a3,3,0,0,0-1.91.6c-.54.44,0,.14-1.21,1.57-.72.92-1.1,1-.83,1.36s1.26,0,3,0,2.17-.46,2.54,1,.46,2.46-.42,2.82-3.4,0-4.57,1.46-.6,2.38-1.71,2.49-2.18-.81-2.62.1,0,2,0,3a2.82,2.82,0,0,1-2.48,1.94,3,3,0,0,1-2.3-1.59c-.53-.73-.31-1.4-.75-1.14,0,0-.63.13-.34,1.9s2.12,2.73,2.27,4.48.35,2.67.34,4c0,.86,1,2.08-.14,3.15-.4.38-3.93.53-6,1.63-1.8.92,2.31,5.88,1.79,7.12a13.5,13.5,0,0,0-1.14,2.9c-.17,1.71.84,2,1.09,3.27.14.71-.33,1.38-.41,1.77a1,1,0,0,0-.3-.29c-1-.66,0-2.5-1.22-3.47-2.34-1.79-1.16-1.77-.51-4.41a7.75,7.75,0,0,0-1.55-6.74c-.47-.78-3.44-2.53-5.63-3.61-2-2.22-10.54-1.5-11.25-2.84-2-3.85,3.94-10.62,4.89-14.7.16-.58.42-2.7.49-2.92,2.72,1,16.11,5.74,18,6.4a1.32,1.32,0,0,0,.89.39c1.06,0,1.84-.06,2.41-1.4.41-.79-1.93-.83-2.45-1-3.39-1.46-15-5.45-18.21-7a5.17,5.17,0,0,0-.29-3.53c-.4-1.14-1.37-2.74-4.49-2.83a2.69,2.69,0,0,0-2.56-.9.28.28,0,0,1-.2,0c-.15-.33-.8-.29-1.12-.52a2.78,2.78,0,0,0-2.86-.65.56.56,0,0,1,0-.08,5.64,5.64,0,0,0-3.16-1.2,2.5,2.5,0,0,1-.68.06c-.1,0-.13-.08-.22-.13-1.06-.55-3.69-.06-5.11.38-3.91-1.88-7.88-3.65-9.17-4.29C123.27,46.65,79.87,29,70.23,25.24A146.21,146.21,0,0,1,49,14.91c-2.74-1.69-5.17-5.09-7.42-12.23-.39-1.23-.1-4.75-3.19-1-3.25,4-6.93,11.4-8,20.34-.14,1.11-.74,3.68,1.42,2.54,3-1.6,8.71-4.47,14-3.31,6.84,1.49,28.79,9.41,45.42,16.3C102.35,42.19,137,55.93,140.57,58c.44.23.51.35.44.42s-.44,0-.65,0h-.23c-.07.39-7.74-2.55-26-3.6a65.55,65.55,0,0,0-11.82-.48c-2.83.15-6.22.8-9.8,1.18-4,.43-8.18.62-12.83,1.44-2.64.47-6.63.64-9.44,1.27a48.26,48.26,0,0,0-13,5c-3.06,1.49-6.64,1.4-10,2.68A129,129,0,0,0,5.75,91.12C0,96.45-3.25,99,4.92,97.59c2.4-.44,3.89.14,5.07-1.4,2.07-2.69,12.86-7,9.51.59-1.57,8.74,3.78,4.59,8.89,1.89,1.39-.74,14.86-7.86,15.91-7.71.52-.06.82.17.89.42a2,2,0,0,1-.26,1.35c-1.45,3.26-7.68,10-8,10-.43,2.29,1.85,2.84,5,1.24,8.47-1.94,15.37-8,24.32-10.16,5.81-1.4,9.68-2.88,11-2.15.63.34.48,2,.5,2.39.18,4.68-3.37,14.55-.68,15.33,2.85.82,10.38-11.52,12.06-13.68a28,28,0,0,1,2-2.26c.66-.69,1-.19,1.16.33a32.41,32.41,0,0,1,.82,7.35,18.9,18.9,0,0,1-1.16,7.27c-2.13,5.7,1.83,3.13,5.54,1a42.55,42.55,0,0,0,7.59-5.68c2.63-2.83,5.79-6.19,5.79-6.19a1.55,1.55,0,0,1,1.38-.76c3.35.84-1.11,17.84,4.48,17.84,4.91,0,7.1-10.1,9.08-9.37s5.73,13.2,9.73,14a8.32,8.32,0,0,1,.11-4.73c.83,1.24-.75-3.91.52-2.83,7.54,6.38,4.33,8.19,4.62,12.7.46,8,6.22,5.91,6.67,6.46,2.58,3.24-.92-4.39,1.78-2.07.71.6,6.69,2.15,6.36,3.16-1.72,5.37,4.37,13.47.51,17.57a17.13,17.13,0,0,0-3.4,5.45,53.71,53.71,0,0,0-10.52,23.23c1.73,10.6,10.83,22.33,13.12,23.94s2.89.77,2.37-1.45c-.4-1.67.74-3-1.08-5.21-.68-.83-1-3.81-1.38-4.81a61.2,61.2,0,0,1-3-9.12c-.2-1.3-.44-2.32-.56-3.41-.07-.48-.1-1-.13-1.46a20.23,20.23,0,0,1,.33-4.56,27.9,27.9,0,0,1,.72-3.51,9,9,0,0,1,.84-1.58c.43-.89.82-1.8,1.3-2.68.27-.44.31-1.06.58-1.49.42-.68,1.09-.81,1.33-1.17a2,2,0,0,0-.08-1.84c1.24-1.86,2.64-4,4-6,1.3-1.76,2.5-3.37,3-4a1,1,0,0,0,.26-.42,8.92,8.92,0,0,1,2.63-2.36,32.88,32.88,0,0,0,4-2.13c.4.18,1.22.07,2.58-.44,4.35-1.63,8.74-5.66,8.74-5.66l.32-1.17c1.11-1.16,2.14-2.28,3.12-3.14a21.34,21.34,0,0,0,1.79-1.75,5.16,5.16,0,0,1,3.09,0l3.69-8.31s1,5.81,1.42,7.35,2.24,5.54,4,5.54-.36-3.05-.36-3.05a22,22,0,0,1,3.62,2.63c2.2,1.89,5.49,1.89,6.58,4.51s0,3.06,0,3.06-14.89-4.89-20.73-3.78-15.17,4.09-18.44,7.87a6,6,0,0,0-1.25,2.29A37.4,37.4,0,0,1,166,154.6c-.38.47-.49,1.46-.9,2.05s-.23,1.33-.74,2.12c-1.62,2.53-1.45,5.09-3.1,9.07a52.26,52.26,0,0,0-2.32,5.5,31.75,31.75,0,0,0-.46,5.4c-.11,1.46-.46,3-.42,4.42a39.76,39.76,0,0,0,1.35,8.81c.83,4.82,2.23,14.21,1.89,20.68-.05.84.31,1.94.26,2.81s-.54,1.45-.6,2.3.41,2.45.34,3.26c-.33,5.88-1.12,10-1.12,13.65.12,1.74-.36,3.06-.1,4.42a56.11,56.11,0,0,1-13.73,26.09c-4.57,9.38-15.37,12-29.1,14.37-2.88,1.45-10-3.31-9.61-4.13-5.27-2.67-9.5,7.2-6.09,7.2,5,2.28,9.06,22.58,14.94,19.13,4.07-2.4,3.35,3.89,7.47,1.49,1.84-.44,2.51.09,4-2.7,3.44-5.64,8.84-8.65,12-12.18,2.29-2.49,6.26-13.67,7.39-13.22,0,7.64-9.61,20.7-14.07,23.22-6.78,6.93-3.17,10.42-.2,16.7.68,1.46.82,2.82,2.14,4a21.68,21.68,0,0,0,2.52,1.69c2.64,2.24,10.06,2.14,12.64.71s5.45-.51,5.92-1.4c.92-1.78-4.06-8.42-5.35-10s-2.49-1.34-1.85-3.49c1-3.52-2-2.89-.14-6.77,2-4.33,3.48-11,5.05-14.79.12,0,10.32-27.31,10.59-31.87.5-3.23,4-11.64,4.58-9.35-1.54,12.16-5.35,29-10.27,45.78,1.17,7.43-3.39,10.55-3.3,16.17.06,3.55,2.57,2.83,3.4,2.93,4.23.48,6.92,3.34,9.82,2.37,3.89-1.11,10.7-5.92,8.39-5.77-1.72.11,2.21-7.26,2.21-10.09,0-2.6-4.16-10.43-5-19.45-.3-3.12,6.08-7.77,6.05-9.05,0-1.52-5.64.6-6.56-1.37-1.46-3.21-1.32-12.06-.39-16.65.24-4.72,1.52-17.5,1.3-19.29.81-3.6,8.35,5.85,10.93,11.56.11,0,.38.82.48,3.16,0,.76-.16,1.77-.1,2.82s.32,2.49.35,4c0,.57,0,1.17,0,1.79s-.21,1.46-.19,2.07c0,1,.25,1.85.26,3,0,1.62,0,3.39,0,5.28,0,.87-.25.66-2.52,1.87-1.18.65-2.09.6-1.92,1.78.24,1.88,4.3,2.66,4.8,8,.21,2.18-.27,10.8.72,15.74.21,1,.46,2.53.54,2.65.64.85.83,4.26-.08,5.73-.24.38-1.29,5.52-.46,5.48l6.48-.95a7.88,7.88,0,0,0,1.53-.26,5.34,5.34,0,0,0,1.14.07,6.39,6.39,0,0,0,3.94-1.87c2.12-.88,4-.71,5.12-1.19,1.52-.67,9.4.31,11-.15,6.8-1.89,17.81-2.22,19.75-4.2a36.14,36.14,0,0,0,4-1.34c-.57.1-1.84,0-3.33-4.47a33,33,0,0,0-7.82-13.1c-3.29-3.23-16.21-18.26-16.21-18.26a45.27,45.27,0,0,0,5.42,2.8,55.56,55.56,0,0,0,11.82,2.42s4.25,7.16,7.23,11.08,9.73,10,11.25,12.55c1.67,2.77,1.55,3.09-1,4-2.05.76-3.87,1.53-5.19,2.11,3.23-1.33,6.19-2.64,7.56-2.67.95.15,1.76-.26,2.58,0h.62c7.32,1.36,10.5,12.42,12.05,12.52,3.4,1.07,4.18-.81,8-2.51,3.42-1.5-5-4.89-2.74-10.49.84-2,3.41-9.2,6.3-12.05,1.53-1.49,2.46-.76,3.23-1.55,1.1-1.12-.1-4.07-1-4.85-1.68-1.37-6.11-.44-9,5.42a2.61,2.61,0,0,1-1.59,1c-.59,0-.78.77-1.56.26s3.47-3.7,2.72-4.53c-2.3-2.48-7-3-3.74-4.55,1-1.45-.88-3.53-1-5-1-6.73-7.33-9.11-14.59-9.84-.8-.07-.47-1.27-1.52-1.09a32.32,32.32,0,0,1-3.95.84c-1.22,0-2.11-.43-3.47-.22a17.73,17.73,0,0,1-2.11.33c-.76,0-1.38-.19-2.12-.16-1.12.06-2.34.36-3.36.42a31.91,31.91,0,0,1-6.67-.12c-1.81-.33-1.75.64-5.39.87-12.76-2.55-20.09-7.24-29.95-18.07-6.7-4.17,1.39.37,1.29-1.21,4.08,1-4.92-2.69-9.92-6.51-1.67-2.64-4.13-1.52-8.33-5.89-.54-.55-1.81-1-4.19-3-.05-.2-.08-.39-.15-.6-.92-2.37-3-4-2.68-7.47a8.11,8.11,0,0,0-1.71-5.75s2.73-1.94,0-5.29a15.06,15.06,0,0,1-2.47-4.72c.1-.56.17-1.19.24-1.9.21-1.73-3.18-3.8-1.95-13.35.15-1.06.91-4.11,1.14-5.28.18-1-.69-2.8-.44-3.84.28-1.19,1.7-1.6,2.1-2.91.43-1.52.72-4.55,2.35-7.42a51.78,51.78,0,0,0,3.23-7.55l3.36-5.62s4.89-4.09,10-4.09,7.4-8.15,25,2.94c3.52,2.2,2.44,7.75,4.39,9.21,1.76,1.33,1.65,1.92,1.92,3.29.45,2.31-1.52,4.69-3,6.08-3.26,3.15-14.67,20.76-10.25,17.67,6.06-4.26,5.43-9.47,6.89-9.85s6.38-7.77,8.53-9.31c1.37-.94,2.16,2.28,2.9,5.84-.09-2.14,0-4.27,0-5.75,0-5.26,2.75-9.11,4.16-11.34,1.73-2.83,2.33-4,8.63-15s9-12.07,9-12.07a12.85,12.85,0,0,1,3.46-.73,13.48,13.48,0,0,1,3,.77c1.15.36,1.45,0,2.94.47s.92,1.48.72,3-.65,1.64-.77,2.2a25.07,25.07,0,0,1-6.93,13.92c-4.41,4.54-16.25,14.71-17.31,16.1s-.66,1.53-.6,2.67a8.09,8.09,0,0,0,2.55,4.17c.89.64,1.59,1.77,1.34,2.39s-.81.95-2.28-.24c-2.2-1.7-3.72-1.57-3.65,0s-.32,3.36.65,4.82c.62.92,2.93,2.51,4.15,1.93.66-.32,1.26-.55,1.52-.2s.24.45-.92,1.42c-1.36,1.12-4.21.95-7.29-1.19a2.81,2.81,0,0,1-.73-.73c1.31,3.89,2,7.44,3.08,9.6a4.44,4.44,0,0,1,.19.53c.22.33.38.58.5.73,6.15,8.54,9.71,7.46,9.71,7.46s4.22,1.31,5.82,1.83a2.46,2.46,0,0,1,.83.33l.27.16a33.15,33.15,0,0,1,3.53,2.86c1,.94.65,1.17,2,1.6,1.15.38.42.6,1.59.6,1.88,0,5.35-.42,6.58.07.42.18,1.37-3.16,4.6-5.38.1-.06,1.49-1.93,1.53-2.05s-6.13,6.39-10.52,3.24c-6.55-4.67-7.05-8.31-10.56-11.92-.24-.25-1.2-1.46-1.44-1.69-.5-.57-.62-.44-1.07-.95s-.68-.94-1-1.24c-1.59-1.47-2.72-4.41-3.22-5.29-.37-.68-.77-1.37-.39-1,.61.57,1.55,1.45,2.69,2.54.53.49,2.24,1.14,2.84,1.71.24.23.48.47.74.7s.57.54.86.83c4.65,4.37,12.47,3.86,13.78,4,.23,0-.23-.2,0-.2s2.84,1.42,3.17,1.39.54-.31.74-.35c.66-.08,1.38.22,1.94,0a7.18,7.18,0,0,0,.84-.39c.5-.29.93,0,1.24-.47,1.11-1.78,1.5.23,2-1.23.32-.87.63.14.77-.32a1.06,1.06,0,0,1,.66-.62,69.83,69.83,0,0,1-1.07,8.36c-.62,3.74-7.74,10.2-7.47,11.09a25.63,25.63,0,0,0,4.88,8.33,40.33,40.33,0,0,1,2.7,3.81c1,1.75,3,1.06,4.67-.68a11.78,11.78,0,0,0,1.49-2.72c.17-.34.72-1,1.12-1.69.53-.85,1.27-1.59,2-2.73.28-.47.3-1.2.59-1.69s1.07-1.09,1.33-1.56a8.38,8.38,0,0,0,.95-2.85c.36-2.83-3.57-4.22-3.55-4.5.19-1.31-3-2.56-2.12-6.6,1.48-6.79,5.87-8.8,2.68-13.46-.64-1-.76-2.81-1.28-3.4a6.64,6.64,0,0,0-2.57-1.5c-1.66-.75-3.7,2.53-5.94,2.21a19.57,19.57,0,0,1-9.91-4.93s-10.88-5.93-11.53-9c-.31-1.19-5.29-5-4.31-5.81.67-.55-.56.34.11-.21a9.94,9.94,0,0,1,1.45-1c.34-.16.35-.64.6-.38,1.64,1.67,6.26,9.49,8.53,10.7,2.94,1.59,3.57,1.69,6,4.49s2.67.05,2.79-2c.1-1.75,1.88-5,1.72-7.13-.31-4.54.09-7.16,1.52-12.44s2.3-8.79.15-14.84a11.25,11.25,0,0,1-.15-3.71c0-2.64-2.65-7.78-4.32-8.71-1.31-.76-3.66-2.33-8.51-.57a12.67,12.67,0,0,1-2,.66c-.28,0-.91.64-1,.61-.4-.1-.3-.46.26-1a11.88,11.88,0,0,1,1.55-1.25c1.2-.83,3.5-2,4.91-1.76,1.68.25,2.21-.93.63-1.31a10.53,10.53,0,0,0-5.3-.11,6.61,6.61,0,0,0-2.52,1.34,8.7,8.7,0,0,0-.86.59c-.13.14-.46.69-.6.81s-1.36,1.11-1.51,1.26a12,12,0,0,0-1.79,2.28c-1.11,1.5-4.74,4-5.85,7s-1.92,4.66-1.92,2.77-.19-1.27.62-4.63c3.39-5.7,9.14-12.44,12.1-14.11,5.9-2.42,7,.5,9.27,1.52,4.64,3.47,8.88,7,8.88,15.4,0,2.76,4.89-.35,5.5-1.23,1.66-2.36,4.6-5.15,4.91-4.6a17.7,17.7,0,0,1,2.82,3.61c.84,1.32,4.71,6.68,5.74,7.89,2.75,3.19,4,3,3.22-1.08-.9-4.7,2.32-13.24,2.78-15.24.59-.11,8.08,6.32,9.46,7.68,4.8,4.71,6.85,5.92,8.24,4.91s.71-3.27.52-5c-.52-4.4-1.62-11-.76-11.73s6.07,3.26,8.42,6.49c1.5,2.08,8.84,9.86,12,9.31,1.24-.23-1-2.23-1.69-5.79s-1.66-11.37.79-11.15c4.18.39,5.8,2.71,10.42,6,2.21,1.57,6.6,5.92,13.39,9,6.07,2.69,7.06,1.71,5.95-.4-.6-1.13-3.94-6.62-4.57-8.73s.17-3.35,1.52-2.26c5.82,4.71,16.73,9.62,18.14,10,5.49,1.38,8.2,2.57,9.13,1.17,1.31-1.91-.65-5.07-.83-7.22-.09-1,.08-1.77.65-1.32.95.76,2,1.71,3,2.69a29.21,29.21,0,0,0,14.11,7.71c2,.51,2-.31,1.41-1.4M175.08,104.3a7.06,7.06,0,0,1-.68-1.11l.68,1.11M157.33,59.72c-.31.06-.66.16-1,.24a.39.39,0,0,0,.16-.25.78.78,0,0,0-.05-.23,8.11,8.11,0,0,1,.88.24m-4.8-.1a1,1,0,0,0,.14.16c-.21-.09-.42-.17-.62-.27a1.48,1.48,0,0,1,.48.11m1.83.49a1.07,1.07,0,0,0,.64.23c-.22.08-.41.14-.63.2l-1.06-.46a4.36,4.36,0,0,1,1.05,0m37.42,61.1c0-.26,0-.39,0-.38-1.46-.16-1.51,1-3.3,2.71-.16.15-.36.3-.53.46a8.78,8.78,0,0,1-1.95,1.28c-2.34.75-7-.19-11.94,1-2.11-.21-4.35-.09-5.74,1a1.27,1.27,0,0,0-.47,1.7c-1.9.78-4.73,1.26-5.79.12a4.4,4.4,0,0,1,.47-1c3.53-5.41,4.09-3.22,2.77-10.06a27.58,27.58,0,0,1-.56-5.16c-.4-.54-1.24-1.47-3.42-.89s-4.47.39-10-.38a36.93,36.93,0,0,1-5.34-1.4c-.49-.13-1.52-.19-2-.32s-.88-.43-1.42-.6c-.24-.08-.7-.11-1-.19-2-.69-3.68-1.64-5.41-2.28-1.34-.5-2.88-.7-3.92-1a19.65,19.65,0,0,1-3.79-1.39c-.89-.87-.65-1-.5-3.5,1.11-16.44,11-24.38,11.59-25.62,2.54-4.78,5.06-7,6.45-9.11s1.27-4.33,1.68-4.74c.91.1,2.23,1,3,1,1.45.21,1.18.65,2.67.27a8.06,8.06,0,0,1,2.35.39,3.18,3.18,0,0,0,.63-.79c.23-.39.45-1.52.95-1.61a.88.88,0,0,1,1.1.94,6.8,6.8,0,0,1-.19,2.09,5.19,5.19,0,0,1-.85,1.36s-.05,0-.06,0l-.17.12c-.06,0-.13.13-.19.19s0,0,0,0c-.84.89-1.44,2.29-3.43,2.51-4.55.54-7.66,13.28-9.34,17.74-.89,2.41-3.34,6.1-3.25,9.17.14.54,1.21.88,2.47,1.12a29.28,29.28,0,0,0,5.73.51c1.06,0,2.26-.11,3.45-.13.81,0,1.56.14,2.42.13s2-.22,3.06-.25l5.37-.12a12.45,12.45,0,0,0,3.49-.71,14.92,14.92,0,0,1,5.45-.58,7.25,7.25,0,0,1-.11,2.61c-.1.06-.18.14-.28.21-.77.6-2.64,1.64-2.94,5.39s-.18,2.63,1,4.35c1.73,2.44.89.75,2.56.23s5.2,2.76,5.76,1.09c.16-.45-.11-1-.59-1.64a3,3,0,0,0,1.36.6c.27,0,.76-.08.88-.28.07.12.32.17.88.12,1.19-.1,1.91-2.24,1.69-4.6a6.1,6.1,0,0,1-.05-2.24,10.66,10.66,0,0,1,.81-4.93c.8-1.53,3.65-1.31,3.65-3.54s.12-6.78.69-6.49,1.24,2.35,1.24,5-.26,3,.64,3.9a8.5,8.5,0,0,0,2.3,1.5s1.69.53,1-2.32-2.14-3-1.5-5,1.38-4.42,4.22-1.72c1.78,1.71,1.07,1,2.45,3.63.62,1.18,1.42,2.31.87,4.23-.3,1.06-1.07,1.33-1.32,3.5s-.58,2.63,1.44,3.13,2.57.73,4.38-.73,3-2.49,3.72-2.23,1.87.31,1.38,1.51-1,.39-1.42,1.43c-.24.6-1.13,2.38.13,2.38s.36,1.49,1,1.91.87.45-.07,2.19-.28.86-1.43,2a27.53,27.53,0,0,0-4.33,7.34c-1.38-.11-3.66,3.22-5.71,2.65-1.38-.44-3.13.06-4.85,1m47.07,47.07c8,6.95,11.29,6.28,12.93,6.25s6.88,1.59,6.8,2.48-1.94-.38-2.42-.37c-10.53.52-16.31-3.75-18.85-5.23s-4.12-8.15-6.71-10.15c.7-.73,1-1,1.56-1.5,1.56.81,5.77,7.72,6.69,8.52"/></g></g></svg>