<svg xmlns="http://www.w3.org/2000/svg" xmlns:xlink="http://www.w3.org/1999/xlink" width="500" zoomAndPan="magnify" viewBox="0 0 375 374.999991" height="500" preserveAspectRatio="xMidYMid meet" version="1.0"><defs><g/><clipPath id="b272109eb9"><path d="M 2.742188 11.761719 L 372.492188 11.761719 L 372.492188 296 L 2.742188 296 Z M 2.742188 11.761719 " clip-rule="nonzero"/></clipPath><clipPath id="0fee2f3a36"><path d="M 187 232.210938 L 329 232.210938 L 329 363 L 187 363 Z M 187 232.210938 " clip-rule="nonzero"/></clipPath></defs><g clip-path="url(#b272109eb9)"><path fill="#0e7089" d="M 301.121094 11.761719 L 73.871094 11.761719 C 34.101562 11.761719 2.855469 43.007812 2.855469 82.777344 L 2.855469 224.808594 C 2.855469 264.574219 34.101562 295.824219 73.871094 295.824219 L 301.121094 295.824219 C 340.890625 295.824219 372.136719 264.574219 372.136719 224.808594 L 372.136719 82.777344 C 372.136719 43.007812 340.890625 11.761719 301.121094 11.761719 Z M 301.121094 11.761719 " fill-opacity="1" fill-rule="nonzero"/></g><g clip-path="url(#0fee2f3a36)"><path fill="#0e7089" d="M 216.417969 232.402344 L 299.800781 232.402344 C 322.039062 232.402344 335.933594 256.472656 324.816406 275.726562 L 283.128906 347.941406 C 272.011719 367.195312 244.21875 367.195312 233.101562 347.941406 L 191.414062 275.726562 C 180.285156 256.480469 194.183594 232.402344 216.417969 232.402344 Z M 216.417969 232.402344 " fill-opacity="1" fill-rule="nonzero"/></g><g fill="#ffffff" fill-opacity="1"><g transform="translate(-1.766316, 218.243928)"><g><path d="M 64.984375 1.078125 C 56.898438 1.078125 49.648438 -0.300781 43.234375 -3.0625 C 36.828125 -5.820312 31.367188 -9.742188 26.859375 -14.828125 C 22.421875 -19.835938 19.035156 -25.78125 16.703125 -32.65625 C 14.378906 -39.53125 13.21875 -47.015625 13.21875 -55.109375 L 13.21875 -127.40625 C 13.21875 -131.5625 14.648438 -135 17.515625 -137.71875 C 20.453125 -140.507812 23.925781 -141.90625 27.9375 -141.90625 C 29.863281 -141.90625 31.738281 -141.53125 33.5625 -140.78125 C 35.394531 -140.03125 36.988281 -139.007812 38.34375 -137.71875 C 41.207031 -135 42.640625 -131.5625 42.640625 -127.40625 L 42.640625 -56.9375 C 42.640625 -47.050781 44.59375 -39.796875 48.5 -35.171875 C 52.40625 -30.554688 58.117188 -28.25 65.640625 -28.25 C 73.085938 -28.25 78.742188 -30.71875 82.609375 -35.65625 C 86.472656 -40.601562 88.40625 -47.660156 88.40625 -56.828125 L 88.40625 -127.40625 C 88.40625 -129.332031 88.796875 -131.207031 89.578125 -133.03125 C 90.367188 -134.863281 91.445312 -136.425781 92.8125 -137.71875 C 94.101562 -139.007812 95.644531 -140.03125 97.4375 -140.78125 C 99.226562 -141.53125 101.160156 -141.90625 103.234375 -141.90625 C 105.171875 -141.90625 107.050781 -141.53125 108.875 -140.78125 C 110.695312 -140.03125 112.289062 -139.007812 113.65625 -137.71875 C 114.945312 -136.425781 115.984375 -134.863281 116.765625 -133.03125 C 117.554688 -131.207031 117.953125 -129.332031 117.953125 -127.40625 L 117.953125 -56.828125 C 117.953125 -48.015625 116.734375 -40.023438 114.296875 -32.859375 C 111.859375 -25.703125 108.347656 -19.617188 103.765625 -14.609375 C 99.109375 -9.523438 93.503906 -5.640625 86.953125 -2.953125 C 80.398438 -0.265625 73.078125 1.078125 64.984375 1.078125 Z M 64.984375 1.078125 "/></g></g></g><g fill="#ffffff" fill-opacity="1"><g transform="translate(125.505838, 218.243928)"><g><path d="M 64.984375 1.296875 L 64.453125 1.296875 C 61.734375 1.296875 59.207031 0.507812 56.875 -1.0625 C 54.550781 -2.644531 52.78125 -4.796875 51.5625 -7.515625 L 4.40625 -122.5625 C 3.613281 -124.71875 3.21875 -126.546875 3.21875 -128.046875 C 3.21875 -131.703125 4.582031 -134.960938 7.3125 -137.828125 C 10.238281 -140.765625 13.675781 -142.234375 17.625 -142.234375 C 20.414062 -142.234375 23.023438 -141.441406 25.453125 -139.859375 C 27.890625 -138.285156 29.71875 -136.140625 30.9375 -133.421875 L 64.984375 -50.171875 L 99.046875 -133.421875 C 100.191406 -136.140625 101.945312 -138.269531 104.3125 -139.8125 C 106.675781 -141.351562 109.289062 -142.125 112.15625 -142.125 C 116.09375 -142.125 119.492188 -140.691406 122.359375 -137.828125 C 124.929688 -135.035156 126.21875 -131.847656 126.21875 -128.265625 C 126.21875 -126.691406 125.828125 -124.789062 125.046875 -122.5625 L 78.53125 -8.8125 C 78.382812 -8.09375 78.0625 -7.375 77.5625 -6.65625 C 76.34375 -4.15625 74.601562 -2.222656 72.34375 -0.859375 C 70.09375 0.503906 67.640625 1.222656 64.984375 1.296875 Z M 64.984375 1.296875 "/></g></g></g><g fill="#ffffff" fill-opacity="1"><g transform="translate(254.78615, 218.273927)"><g><path d="M 91.5 0 L 27.890625 0 C 24.097656 -0.144531 20.878906 -1.578125 18.234375 -4.296875 C 15.585938 -6.941406 14.265625 -10.191406 14.265625 -14.046875 L 14.265625 -127.875 C 14.265625 -131.8125 15.660156 -135.171875 18.453125 -137.953125 C 21.242188 -140.597656 24.601562 -141.921875 28.53125 -141.921875 C 32.539062 -141.921875 35.90625 -140.597656 38.625 -137.953125 C 41.40625 -135.171875 42.796875 -131.8125 42.796875 -127.875 L 42.796875 -28.421875 L 91.5 -28.328125 C 95.4375 -28.328125 98.800781 -26.929688 101.59375 -24.140625 C 104.3125 -21.421875 105.671875 -18.054688 105.671875 -14.046875 C 105.671875 -9.898438 104.3125 -6.539062 101.59375 -3.96875 C 98.945312 -1.320312 95.582031 0 91.5 0 Z M 91.5 0 "/></g></g></g></svg>