<svg xmlns="http://www.w3.org/2000/svg" xmlns:xlink="http://www.w3.org/1999/xlink" width="300" zoomAndPan="magnify" viewBox="0 0 224.87999 74.999997" height="100" preserveAspectRatio="xMidYMid meet" version="1.0"><defs><clipPath id="1bb9c47279"><path d="M 0 0.0195312 L 224.761719 0.0195312 L 224.761719 74.980469 L 0 74.980469 Z M 0 0.0195312 " clip-rule="nonzero"/></clipPath><clipPath id="d9c3b46b4f"><path d="M 179 28 L 224.761719 28 L 224.761719 63 L 179 63 Z M 179 28 " clip-rule="nonzero"/></clipPath></defs><g clip-path="url(#1bb9c47279)"><path fill="#ffffff" d="M 0 0.0195312 L 224.878906 0.0195312 L 224.878906 82.476562 L 0 82.476562 Z M 0 0.0195312 " fill-opacity="1" fill-rule="nonzero"/><path fill="#ffffff" d="M 0 0.0195312 L 224.878906 0.0195312 L 224.878906 74.980469 L 0 74.980469 Z M 0 0.0195312 " fill-opacity="1" fill-rule="nonzero"/><path fill="#ffffff" d="M 0 0.0195312 L 224.878906 0.0195312 L 224.878906 74.980469 L 0 74.980469 Z M 0 0.0195312 " fill-opacity="1" fill-rule="nonzero"/></g><path fill="#000000" d="M 120.382812 28.972656 L 111.582031 28.972656 L 111.582031 45.414062 C 111.582031 49.699219 110.191406 56.644531 103.820312 56.644531 C 98.261719 56.644531 98.144531 51.089844 98.144531 46.917969 L 98.144531 28.972656 L 89.457031 28.972656 L 89.457031 50.277344 C 89.457031 57.804688 92.929688 63.476562 100.925781 63.476562 C 105.210938 63.476562 109.265625 61.507812 111.929688 58.152344 L 112.042969 58.152344 L 112.042969 62.78125 L 120.382812 62.78125 Z M 120.382812 28.972656 " fill-opacity="1" fill-rule="nonzero"/><path fill="#000000" d="M 166.488281 11.949219 L 170.542969 11.949219 L 170.542969 62.667969 L 166.488281 62.667969 Z M 166.488281 11.949219 " fill-opacity="1" fill-rule="nonzero"/><path fill="#000000" d="M 157.566406 14.613281 L 155.714844 14.613281 L 155.714844 12.296875 L 154.671875 12.644531 L 154.671875 14.496094 L 153.050781 14.496094 L 153.050781 15.425781 L 154.671875 15.425781 L 154.671875 20.054688 C 154.671875 21.5625 154.789062 22.71875 156.527344 22.71875 C 156.875 22.71875 157.335938 22.601562 157.683594 22.488281 L 157.566406 21.675781 C 157.21875 21.792969 156.988281 21.792969 156.640625 21.792969 C 155.832031 21.792969 155.484375 21.097656 155.484375 20.402344 L 155.484375 15.191406 L 157.335938 15.191406 L 157.335938 14.496094 L 157.566406 14.496094 Z M 146.910156 13.222656 L 148.070312 13.222656 L 148.070312 11.949219 L 146.910156 11.949219 Z M 149.574219 13.222656 L 150.734375 13.222656 L 150.734375 11.949219 L 149.574219 11.949219 Z M 150.617188 19.015625 C 150.617188 19.941406 150.503906 21.910156 148.300781 21.910156 C 147.375 21.910156 146.679688 21.5625 146.679688 20.519531 C 146.679688 18.78125 148.765625 18.667969 150.503906 18.667969 L 150.847656 18.667969 L 150.847656 19.015625 Z M 150.734375 22.601562 L 151.660156 22.601562 C 151.542969 22.023438 151.542969 21.445312 151.542969 20.980469 L 151.542969 17.507812 C 151.542969 15.425781 150.617188 14.496094 148.765625 14.496094 C 147.953125 14.496094 147.144531 14.730469 146.449219 15.078125 L 146.449219 16.003906 C 147.144531 15.539062 147.953125 15.308594 148.765625 15.425781 C 150.039062 15.425781 150.617188 16.117188 150.617188 17.507812 L 150.617188 17.855469 L 150.503906 17.855469 C 148.417969 17.855469 145.636719 17.972656 145.636719 20.636719 C 145.636719 21.910156 146.679688 22.949219 147.953125 22.949219 C 148.070312 22.949219 148.183594 22.949219 148.300781 22.949219 C 149.34375 22.949219 150.269531 22.371094 150.734375 21.445312 Z M 144.246094 14.613281 L 142.507812 14.613281 L 142.507812 12.296875 L 141.46875 12.644531 L 141.46875 14.496094 L 139.84375 14.496094 L 139.84375 15.425781 L 141.46875 15.425781 L 141.46875 20.054688 C 141.46875 21.5625 141.582031 22.71875 143.320312 22.71875 C 143.667969 22.71875 144.132812 22.601562 144.480469 22.488281 L 144.363281 21.675781 C 144.015625 21.792969 143.785156 21.792969 143.4375 21.792969 C 142.625 21.792969 142.277344 21.097656 142.277344 20.402344 L 142.277344 15.308594 L 144.132812 15.308594 L 144.132812 14.613281 Z M 138.222656 11.140625 L 137.179688 11.140625 L 137.179688 12.53125 L 138.222656 12.53125 Z M 137.296875 22.601562 L 138.339844 22.601562 L 138.339844 14.613281 L 137.296875 14.613281 Z M 130.347656 22.488281 C 131.042969 22.71875 131.851562 22.949219 132.546875 22.835938 C 133.707031 22.835938 135.328125 22.257812 135.328125 20.519531 C 135.328125 17.972656 131.390625 18.085938 131.390625 16.582031 C 131.390625 15.539062 132.085938 15.191406 133.125 15.191406 C 133.707031 15.191406 134.285156 15.308594 134.863281 15.539062 L 134.980469 14.613281 C 134.285156 14.382812 133.707031 14.265625 133.011719 14.265625 C 131.621094 14.265625 130.460938 14.960938 130.460938 16.464844 C 130.460938 18.78125 134.285156 18.550781 134.285156 20.402344 C 134.285156 21.328125 133.359375 21.792969 132.546875 21.792969 C 131.851562 21.792969 131.15625 21.5625 130.460938 21.328125 Z M 125.714844 22.601562 L 126.753906 22.601562 L 126.753906 18.667969 C 126.753906 17.277344 127.101562 15.425781 128.726562 15.425781 C 128.957031 15.425781 129.1875 15.425781 129.417969 15.539062 L 129.417969 14.496094 C 129.1875 14.382812 128.957031 14.382812 128.726562 14.382812 C 127.683594 14.382812 127.101562 15.308594 126.640625 16.117188 L 126.640625 14.613281 L 125.597656 14.613281 C 125.714844 15.191406 125.714844 15.773438 125.714844 16.464844 Z M 118.300781 18.085938 C 118.183594 16.699219 119.226562 15.425781 120.617188 15.308594 C 122.121094 15.308594 122.703125 16.699219 122.703125 18.085938 Z M 123.164062 21.445312 C 122.46875 21.792969 121.773438 22.023438 120.964844 22.023438 C 119.226562 22.023438 118.414062 20.636719 118.414062 18.898438 L 123.859375 18.898438 L 123.859375 18.320312 C 123.859375 16.234375 122.933594 14.382812 120.730469 14.382812 C 118.53125 14.382812 117.371094 16.117188 117.371094 18.550781 C 117.371094 20.980469 118.414062 22.71875 120.964844 22.71875 C 121.773438 22.71875 122.585938 22.601562 123.28125 22.257812 Z M 116.332031 14.613281 L 115.289062 14.613281 L 112.972656 21.5625 L 110.769531 14.613281 L 109.726562 14.613281 L 112.507812 22.601562 L 113.667969 22.601562 Z M 108.222656 11.140625 L 107.179688 11.140625 L 107.179688 12.53125 L 108.222656 12.53125 Z M 107.179688 22.601562 L 108.222656 22.601562 L 108.222656 14.613281 L 107.179688 14.613281 Z M 98.375 22.601562 L 99.417969 22.601562 L 99.417969 18.203125 C 99.417969 16.8125 99.996094 15.308594 101.734375 15.308594 C 103.125 15.308594 103.589844 16.234375 103.589844 17.738281 L 103.589844 22.601562 L 104.632812 22.601562 L 104.632812 17.507812 C 104.632812 15.773438 103.820312 14.382812 101.851562 14.382812 C 100.691406 14.265625 99.648438 14.960938 99.300781 16.003906 L 99.300781 14.613281 L 98.375 14.613281 C 98.492188 15.191406 98.492188 15.886719 98.492188 16.464844 Z M 95.828125 14.613281 L 94.785156 14.613281 L 94.785156 19.015625 C 94.785156 20.402344 94.207031 21.910156 92.46875 21.910156 C 91.078125 21.910156 90.613281 20.980469 90.613281 19.476562 L 90.613281 14.613281 L 89.6875 14.613281 L 89.6875 19.707031 C 89.6875 21.445312 90.5 22.835938 92.46875 22.835938 C 93.625 22.949219 94.667969 22.257812 95.015625 21.214844 L 95.015625 22.601562 L 95.941406 22.601562 C 95.828125 22.023438 95.828125 21.328125 95.828125 20.75 Z M 95.828125 14.613281 " fill-opacity="1" fill-rule="nonzero"/><path fill="#000000" d="M 157.105469 28.855469 L 152.933594 28.855469 L 152.933594 47.5 C 152.933594 53.054688 150.617188 59.773438 142.855469 59.773438 C 137.066406 59.773438 134.863281 55.71875 134.863281 49.351562 L 134.863281 28.855469 L 130.695312 28.855469 L 130.695312 50.394531 C 130.695312 57.804688 133.820312 63.363281 142.160156 63.363281 C 149.226562 63.363281 151.660156 59.539062 153.050781 56.644531 L 153.167969 56.644531 L 153.167969 62.550781 L 157.21875 62.550781 C 156.988281 59.886719 156.988281 57.226562 156.988281 54.5625 Z M 157.105469 28.855469 " fill-opacity="1" fill-rule="nonzero"/><g clip-path="url(#d9c3b46b4f)"><path fill="#000000" d="M 224.289062 62.667969 L 224.289062 39.394531 C 224.289062 32.792969 220.46875 28.160156 213.632812 28.160156 C 208.882812 28.046875 204.597656 30.941406 202.859375 35.339844 L 202.746094 35.339844 C 201.703125 29.433594 196.835938 28.160156 193.824219 28.160156 C 186.644531 28.160156 184.671875 32.445312 183.285156 34.761719 L 183.167969 34.644531 L 183.167969 28.972656 L 179.113281 28.972656 C 179.34375 31.636719 179.34375 34.296875 179.34375 36.960938 L 179.34375 62.667969 L 183.515625 62.667969 L 183.515625 44.023438 C 183.515625 35.6875 188.03125 31.75 192.550781 31.75 C 197.878906 31.75 199.617188 35.570312 199.617188 40.203125 L 199.617188 62.550781 L 203.785156 62.550781 L 203.785156 44.023438 C 203.785156 35.6875 208.304688 31.75 212.820312 31.75 C 218.152344 31.75 219.886719 35.570312 219.886719 40.203125 L 219.886719 62.550781 Z M 224.289062 62.667969 " fill-opacity="1" fill-rule="nonzero"/></g><path fill="#000000" d="M 25.746094 49.46875 C 25.976562 50.507812 26.210938 51.550781 26.558594 52.59375 L 26.671875 52.59375 C 27.601562 52.59375 28.292969 53.289062 28.292969 54.214844 C 28.292969 54.675781 28.0625 55.140625 27.714844 55.488281 C 28.988281 58.265625 30.378906 59.773438 31.886719 59.773438 C 34.203125 59.773438 36.636719 55.835938 37.910156 49.234375 C 35.941406 48.539062 33.972656 47.730469 32.117188 46.804688 C 30.03125 47.730469 27.949219 48.65625 25.746094 49.46875 " fill-opacity="1" fill-rule="nonzero"/><path fill="#000000" d="M 27.714844 44.488281 C 26.789062 43.910156 25.746094 43.328125 24.820312 42.636719 C 24.9375 44.488281 25.167969 46.339844 25.515625 48.191406 C 27.136719 47.5 28.875 46.804688 30.726562 46.109375 C 29.683594 45.644531 28.757812 45.066406 27.714844 44.488281 " fill-opacity="1" fill-rule="nonzero"/><path fill="#000000" d="M 35.941406 30.246094 C 36.867188 30.824219 37.792969 31.402344 38.71875 31.867188 C 38.605469 30.128906 38.371094 28.394531 38.023438 26.773438 C 36.402344 27.351562 34.78125 28.046875 33.277344 28.738281 C 34.085938 29.203125 35.011719 29.667969 35.941406 30.246094 " fill-opacity="1" fill-rule="nonzero"/><path fill="#000000" d="M 20.070312 26.078125 C 19.375 26.078125 18.679688 25.613281 18.449219 24.804688 C 17.871094 24.804688 17.289062 24.6875 16.828125 24.6875 C 14.742188 24.6875 13.234375 25.265625 12.65625 26.308594 C 11.5 28.277344 13.699219 32.328125 18.679688 36.730469 C 20.300781 35.339844 21.921875 34.183594 23.777344 32.910156 C 23.894531 30.707031 24.242188 28.507812 24.703125 26.308594 C 23.546875 25.960938 22.617188 25.730469 21.578125 25.382812 C 21.113281 25.960938 20.535156 26.191406 20.070312 26.078125 " fill-opacity="1" fill-rule="nonzero"/><path fill="#000000" d="M 33.160156 46.226562 C 34.78125 47.035156 36.519531 47.613281 38.023438 48.191406 C 38.371094 46.457031 38.605469 44.71875 38.71875 42.984375 C 37.792969 43.5625 36.867188 44.140625 35.824219 44.71875 C 34.78125 45.296875 34.085938 45.761719 33.160156 46.226562 " fill-opacity="1" fill-rule="nonzero"/><path fill="#000000" d="M 37.792969 25.730469 C 37.5625 24.570312 37.214844 23.296875 36.867188 22.140625 C 35.941406 22.023438 35.359375 21.328125 35.246094 20.519531 C 35.246094 20.054688 35.359375 19.59375 35.707031 19.359375 C 34.550781 16.8125 33.160156 15.425781 31.652344 15.425781 C 29.335938 15.425781 27.019531 19.246094 25.628906 25.5 C 27.714844 26.191406 29.800781 27.121094 31.769531 28.046875 C 33.738281 27.121094 35.824219 26.308594 37.792969 25.730469 " fill-opacity="1" fill-rule="nonzero"/><path fill="#000000" d="M 19.375 37.425781 C 20.765625 38.582031 22.15625 39.625 23.546875 40.550781 C 23.429688 39.507812 23.429688 38.464844 23.429688 37.425781 C 23.429688 36.382812 23.429688 35.222656 23.546875 34.066406 C 22.039062 35.222656 20.648438 36.382812 19.375 37.425781 " fill-opacity="1" fill-rule="nonzero"/><path fill="#000000" d="M 30.726562 28.738281 C 29.105469 27.929688 27.367188 27.234375 25.515625 26.65625 C 25.167969 28.507812 24.9375 30.359375 24.820312 32.214844 C 25.746094 31.636719 26.671875 31.054688 27.714844 30.476562 C 28.640625 29.898438 29.683594 29.320312 30.726562 28.738281 " fill-opacity="1" fill-rule="nonzero"/><path fill="#000000" d="M 18.566406 38.121094 C 17.636719 38.929688 16.828125 39.742188 16.132812 40.433594 C 16.246094 40.667969 16.363281 40.898438 16.363281 41.246094 C 16.363281 42.171875 15.667969 42.867188 14.742188 42.867188 C 14.511719 42.867188 14.394531 42.867188 14.164062 42.75 C 12.308594 45.183594 11.847656 47.265625 12.542969 48.539062 C 13.46875 50.160156 16.363281 50.507812 20.417969 49.699219 C 21.808594 49.351562 23.082031 49.003906 24.472656 48.539062 C 24.007812 46.339844 23.777344 44.140625 23.660156 41.824219 C 21.921875 40.78125 20.1875 39.507812 18.566406 38.121094 " fill-opacity="1" fill-rule="nonzero"/><path fill="#000000" d="M 29.570312 41.476562 C 29.570312 41.941406 30.378906 42.636719 31.539062 42.75 L 31.539062 40.320312 C 30.613281 40.320312 29.570312 40.898438 29.570312 41.476562 " fill-opacity="1" fill-rule="nonzero"/><path fill="#000000" d="M 44.28125 37.425781 C 42.890625 36.265625 41.382812 35.109375 39.878906 34.066406 C 39.996094 35.222656 39.996094 36.382812 39.996094 37.539062 C 39.996094 38.699219 39.996094 39.742188 39.878906 40.898438 C 41.5 39.855469 42.890625 38.699219 44.28125 37.425781 " fill-opacity="1" fill-rule="nonzero"/><path fill="#000000" d="M 45.089844 38.121094 C 43.46875 39.625 41.617188 41.015625 39.761719 42.171875 C 39.648438 44.257812 39.414062 46.339844 38.953125 48.425781 C 40.109375 48.773438 41.269531 49.121094 42.542969 49.351562 C 42.773438 48.773438 43.355469 48.425781 43.933594 48.425781 C 44.742188 48.425781 45.4375 49.003906 45.554688 49.8125 C 48.335938 50.046875 50.1875 49.46875 50.882812 48.308594 C 52.15625 46.570312 49.957031 42.636719 45.089844 38.121094 " fill-opacity="1" fill-rule="nonzero"/><path fill="#000000" d="M 46.828125 51.089844 C 46.367188 51.089844 45.902344 51.089844 45.4375 50.972656 C 45.089844 51.433594 44.628906 51.78125 44.046875 51.898438 C 43.238281 51.898438 42.542969 51.320312 42.425781 50.507812 C 41.269531 50.277344 39.996094 49.929688 38.835938 49.582031 C 37.445312 55.953125 35.011719 60.8125 31.769531 60.8125 C 29.683594 60.8125 27.949219 58.847656 26.558594 55.835938 C 25.628906 55.835938 24.9375 55.140625 24.9375 54.214844 C 24.9375 53.75 25.167969 53.289062 25.398438 52.941406 C 25.050781 51.898438 24.820312 50.855469 24.589844 49.8125 C 23.199219 50.277344 21.808594 50.625 20.535156 50.972656 C 19.257812 51.320312 17.871094 51.433594 16.59375 51.433594 C 14.046875 51.433594 12.308594 50.742188 11.5 49.351562 C 10.457031 47.5 11.265625 45.066406 13.234375 42.402344 C 13.121094 42.171875 13.003906 41.824219 13.003906 41.476562 C 13.003906 40.550781 13.699219 39.855469 14.625 39.855469 C 14.859375 39.855469 15.089844 39.972656 15.207031 39.972656 C 15.898438 39.160156 16.828125 38.351562 17.636719 37.65625 C 12.773438 33.371094 9.875 28.855469 11.5 25.960938 C 12.425781 24.339844 14.859375 23.644531 18.332031 23.992188 C 18.566406 23.414062 19.144531 23.066406 19.839844 23.066406 C 20.648438 23.066406 21.460938 23.761719 21.460938 24.570312 C 22.503906 24.804688 23.546875 25.152344 24.589844 25.5 C 25.976562 19.128906 28.410156 14.496094 31.652344 14.496094 C 33.625 14.496094 35.359375 16.234375 36.636719 19.128906 L 36.75 19.128906 C 37.675781 19.128906 38.371094 19.824219 38.371094 20.75 C 38.371094 21.328125 38.140625 21.792969 37.675781 22.140625 C 38.023438 23.296875 38.257812 24.457031 38.605469 25.613281 C 39.996094 25.152344 41.382812 24.804688 42.660156 24.457031 C 47.292969 23.53125 50.535156 24.109375 51.695312 26.078125 C 52.621094 27.8125 52.042969 30.128906 50.304688 32.5625 C 50.417969 32.792969 50.535156 33.140625 50.535156 33.488281 C 50.535156 34.414062 49.839844 35.109375 48.914062 35.109375 C 48.683594 35.109375 48.566406 34.992188 48.335938 34.992188 C 47.523438 35.917969 46.710938 36.730469 45.785156 37.539062 C 50.652344 41.824219 53.429688 46.339844 51.808594 49.121094 C 51.230469 50.394531 49.378906 51.089844 46.828125 51.089844 M 31.769531 12.644531 C 17.984375 12.644531 6.863281 23.761719 6.75 37.425781 C 6.75 51.203125 17.871094 62.320312 31.539062 62.433594 C 45.324219 62.433594 56.441406 51.320312 56.558594 37.65625 C 56.558594 37.65625 56.558594 37.539062 56.558594 37.539062 C 56.558594 23.878906 45.4375 12.761719 31.769531 12.644531 " fill-opacity="1" fill-rule="nonzero"/><path fill="#000000" d="M 45.089844 36.730469 C 46.019531 35.804688 46.945312 34.992188 47.640625 34.183594 C 47.523438 33.949219 47.40625 33.601562 47.40625 33.257812 C 47.40625 32.328125 48.101562 31.636719 49.03125 31.636719 C 49.144531 31.636719 49.378906 31.636719 49.492188 31.75 C 51 29.433594 51.460938 27.699219 50.882812 26.425781 C 50.1875 25.265625 48.796875 24.917969 46.710938 24.917969 C 45.4375 24.917969 44.28125 25.035156 43.007812 25.265625 C 41.617188 25.613281 40.339844 25.960938 38.953125 26.425781 C 39.300781 28.507812 39.648438 30.59375 39.761719 32.675781 C 41.730469 34.066406 43.585938 35.457031 45.089844 36.730469 " fill-opacity="1" fill-rule="nonzero"/><path fill="#000000" d="M 29.222656 38.121094 C 29.222656 38.699219 30.378906 39.394531 31.539062 39.507812 L 31.539062 36.730469 C 30.378906 36.84375 29.222656 37.539062 29.222656 38.121094 " fill-opacity="1" fill-rule="nonzero"/><path fill="#000000" d="M 35.941406 38.121094 C 35.941406 38.8125 35.246094 39.507812 34.085938 39.972656 C 35.011719 40.320312 35.707031 40.898438 35.707031 41.59375 C 35.707031 42.289062 35.128906 42.867188 34.085938 43.214844 C 33.625 43.328125 33.160156 43.445312 32.695312 43.445312 L 32.695312 44.371094 C 32.695312 44.605469 32.464844 44.835938 32.117188 44.71875 C 31.886719 44.71875 31.769531 44.488281 31.769531 44.371094 L 31.769531 43.5625 C 31.304688 43.5625 30.84375 43.445312 30.378906 43.328125 C 29.335938 42.984375 28.757812 42.402344 28.757812 41.707031 C 28.757812 41.015625 29.335938 40.550781 30.378906 40.085938 C 28.988281 39.742188 28.292969 39.046875 28.292969 38.234375 C 28.292969 37.425781 28.875 36.84375 30.03125 36.5 C 28.640625 36.152344 27.832031 35.339844 27.832031 34.53125 C 27.832031 33.71875 28.410156 33.140625 29.453125 32.792969 C 29.570312 32.5625 29.800781 32.328125 30.03125 32.214844 C 30.265625 32.097656 30.496094 32.097656 30.726562 32.214844 C 30.960938 32.328125 31.074219 32.328125 31.074219 32.5625 C 31.074219 32.792969 31.074219 32.910156 30.960938 33.140625 C 30.84375 33.371094 30.613281 33.488281 30.378906 33.488281 C 30.265625 33.488281 30.03125 33.601562 29.917969 33.601562 C 29.335938 33.949219 28.988281 34.296875 28.988281 34.644531 C 28.988281 35.339844 30.265625 36.035156 31.539062 36.265625 L 31.539062 31.289062 C 31.539062 31.054688 31.652344 30.824219 31.886719 30.707031 C 32.234375 30.707031 32.347656 30.941406 32.347656 31.289062 L 32.347656 36.265625 C 33.738281 36.152344 34.898438 35.339844 34.898438 34.644531 C 34.898438 34.296875 34.550781 33.949219 33.972656 33.601562 C 33.855469 33.601562 33.625 33.601562 33.507812 33.488281 C 33.277344 33.371094 33.042969 33.257812 32.929688 33.140625 C 32.8125 33.023438 32.695312 32.792969 32.8125 32.5625 C 32.929688 32.445312 33.042969 32.214844 33.160156 32.214844 C 33.390625 32.097656 33.625 32.097656 33.855469 32.214844 C 34.203125 32.328125 34.433594 32.5625 34.433594 32.792969 C 35.359375 33.257812 36.054688 33.949219 36.054688 34.53125 C 36.054688 35.457031 35.128906 36.152344 33.855469 36.5 C 35.246094 36.730469 35.941406 37.539062 35.941406 38.121094 M 35.476562 31.171875 L 32 29.320312 C 30.726562 30.015625 29.453125 30.59375 28.179688 31.402344 C 26.90625 32.214844 25.863281 32.792969 24.703125 33.488281 C 24.589844 34.761719 24.589844 36.152344 24.589844 37.539062 C 24.589844 38.929688 24.589844 40.085938 24.703125 41.363281 C 25.863281 42.054688 27.019531 42.867188 28.292969 43.5625 C 29.570312 44.257812 30.726562 44.949219 32 45.53125 C 33.160156 44.949219 34.316406 44.371094 35.359375 43.675781 C 36.402344 42.984375 37.675781 42.289062 38.835938 41.59375 C 38.953125 40.320312 38.953125 38.929688 38.953125 37.539062 C 38.953125 36.152344 38.835938 34.644531 38.835938 33.257812 C 37.792969 32.675781 36.636719 31.867188 35.476562 31.171875 " fill-opacity="1" fill-rule="nonzero"/><path fill="#000000" d="M 32.464844 39.507812 C 33.625 39.394531 34.78125 38.699219 34.78125 38.121094 C 34.78125 37.539062 33.625 36.84375 32.464844 36.730469 Z M 32.464844 39.507812 " fill-opacity="1" fill-rule="nonzero"/><path fill="#000000" d="M 32.464844 42.75 C 33.390625 42.636719 34.433594 42.054688 34.433594 41.476562 C 34.433594 40.898438 33.390625 40.320312 32.464844 40.203125 Z M 32.464844 42.75 " fill-opacity="1" fill-rule="nonzero"/><path fill="#000000" d="M 5.242188 26.886719 C 5.476562 27.003906 5.707031 26.886719 5.824219 26.65625 C 5.9375 26.425781 5.824219 26.191406 5.589844 26.191406 C 5.359375 26.078125 5.242188 26.191406 5.128906 26.425781 C 5.128906 26.425781 5.128906 26.425781 5.128906 26.539062 C 5.011719 26.539062 5.011719 26.773438 5.242188 26.886719 M 3.273438 32.445312 C 4.433594 32.910156 5.707031 32.328125 6.054688 31.171875 C 6.054688 31.054688 6.171875 30.941406 6.171875 30.824219 C 6.519531 29.667969 5.9375 28.507812 4.78125 28.160156 C 4.664062 28.160156 4.546875 28.160156 4.433594 28.046875 C 3.273438 27.582031 2 28.160156 1.652344 29.320312 C 1.652344 29.433594 1.535156 29.550781 1.535156 29.667969 C 1.1875 30.824219 1.769531 31.980469 2.925781 32.328125 C 3.042969 32.445312 3.160156 32.445312 3.273438 32.445312 M 3.390625 31.75 C 2.464844 31.519531 1.769531 30.824219 2.117188 29.78125 C 2.347656 28.972656 3.273438 28.507812 4.085938 28.738281 C 4.199219 28.738281 4.199219 28.738281 4.199219 28.855469 C 5.011719 28.972656 5.707031 29.667969 5.589844 30.59375 C 5.476562 31.519531 4.78125 32.097656 3.851562 31.980469 C 3.738281 31.867188 3.503906 31.867188 3.390625 31.75 M 1.074219 36.730469 L 1.1875 35.917969 C 1.1875 34.992188 1.882812 34.296875 2.8125 34.296875 C 2.925781 34.296875 2.925781 34.296875 3.042969 34.296875 C 3.851562 34.183594 4.664062 34.878906 4.78125 35.6875 C 4.78125 35.804688 4.78125 36.035156 4.78125 36.152344 L 4.664062 36.84375 Z M 5.128906 37.539062 L 5.242188 36.152344 C 5.476562 34.992188 4.664062 33.835938 3.503906 33.601562 C 3.390625 33.601562 3.273438 33.601562 3.160156 33.601562 C 1.882812 33.488281 0.839844 34.53125 0.726562 35.804688 C 0.726562 35.804688 0.726562 35.917969 0.726562 35.917969 L 0.492188 37.425781 Z M 5.707031 42.75 L 5.707031 42.171875 L 1.882812 42.75 L 5.359375 40.203125 L 5.242188 39.277344 L 0.609375 39.855469 L 0.726562 40.550781 L 4.433594 39.972656 L 0.957031 42.519531 L 1.074219 43.445312 Z M 4.664062 45.644531 L 5.242188 47.5 L 2.695312 47.382812 Z M 7.328125 48.191406 L 7.097656 47.5 L 5.824219 47.5 L 5.128906 45.414062 L 6.054688 44.488281 L 5.824219 43.792969 L 2.117188 47.152344 L 2.347656 47.847656 Z M 5.242188 53.054688 L 4.894531 52.476562 C 4.546875 51.898438 4.664062 51.550781 5.011719 51.320312 C 5.359375 51.089844 5.824219 51.320312 6.171875 51.898438 L 6.402344 52.363281 Z M 9.183594 51.667969 L 8.835938 51.089844 L 6.980469 52.128906 L 6.863281 51.78125 C 6.632812 51.550781 6.632812 51.203125 6.863281 50.855469 L 8.023438 49.46875 L 7.675781 48.886719 L 6.519531 50.507812 C 6.402344 50.742188 6.285156 50.855469 6.402344 51.089844 C 6.054688 50.625 5.476562 50.507812 5.011719 50.742188 C 4.085938 51.320312 4.316406 52.128906 4.78125 52.941406 L 5.128906 53.867188 Z M 6.285156 55.835938 L 6.75 56.296875 L 8.835938 54.675781 C 9.53125 54.097656 10.222656 53.984375 10.6875 54.5625 C 11.152344 55.140625 10.917969 55.835938 10.222656 56.414062 L 8.140625 58.035156 L 8.488281 58.613281 L 10.570312 56.878906 C 11.382812 56.414062 11.730469 55.371094 11.152344 54.5625 C 11.035156 54.445312 11.035156 54.332031 10.917969 54.214844 C 10.339844 53.402344 9.296875 53.289062 8.601562 53.867188 C 8.488281 53.984375 8.371094 54.097656 8.253906 54.214844 Z M 10.109375 60.003906 C 10.222656 60.351562 10.457031 60.582031 10.6875 60.929688 C 11.613281 61.855469 13.121094 61.742188 13.929688 60.8125 C 13.929688 60.8125 14.046875 60.699219 14.046875 60.699219 C 14.972656 59.773438 14.859375 58.265625 13.929688 57.457031 C 13.816406 57.339844 13.816406 57.339844 13.699219 57.226562 C 13.46875 56.992188 13.121094 56.761719 12.773438 56.644531 L 12.425781 57.109375 C 12.773438 57.226562 13.121094 57.339844 13.351562 57.574219 C 14.046875 58.152344 14.164062 59.308594 13.582031 60.003906 C 13.003906 60.8125 11.960938 60.929688 11.152344 60.351562 C 11.152344 60.351562 11.035156 60.234375 11.035156 60.234375 C 10.804688 60.003906 10.570312 59.773438 10.457031 59.425781 Z M 16.246094 61.625 C 16.363281 61.507812 16.363281 61.160156 16.132812 61.046875 C 16.015625 60.929688 15.785156 60.929688 15.554688 61.160156 C 15.4375 61.277344 15.4375 61.625 15.667969 61.742188 C 15.898438 61.742188 16.132812 61.742188 16.246094 61.625 M 21.460938 64.636719 C 22.269531 63.710938 22.15625 62.203125 21.230469 61.394531 C 20.300781 60.582031 18.796875 60.699219 17.984375 61.625 C 17.753906 61.972656 17.523438 62.320312 17.40625 62.78125 C 16.59375 63.824219 16.828125 65.214844 17.871094 66.023438 C 18.910156 66.835938 20.300781 66.605469 21.113281 65.5625 C 21.230469 65.332031 21.460938 64.984375 21.460938 64.636719 M 20.882812 64.289062 C 20.648438 65.097656 19.722656 65.5625 18.796875 65.332031 C 18.796875 65.332031 18.796875 65.332031 18.679688 65.332031 C 17.871094 64.75 17.636719 63.59375 18.21875 62.78125 C 18.679688 62.089844 19.492188 61.855469 20.1875 61.972656 C 20.996094 62.320312 21.34375 63.246094 20.996094 64.054688 C 20.996094 64.171875 20.882812 64.289062 20.882812 64.289062 M 25.167969 67.53125 L 24.355469 67.296875 C 23.546875 67.183594 22.964844 66.257812 23.082031 65.445312 C 23.082031 65.332031 23.082031 65.214844 23.199219 65.214844 C 23.3125 64.289062 24.125 63.710938 25.050781 63.824219 C 25.167969 63.824219 25.28125 63.824219 25.398438 63.941406 L 26.09375 64.054688 Z M 26.90625 63.710938 L 25.515625 63.363281 C 24.242188 63.015625 22.964844 63.824219 22.734375 64.984375 C 22.386719 66.257812 23.199219 67.53125 24.355469 67.761719 L 25.746094 68.109375 Z M 32 64.171875 L 31.304688 64.171875 L 31.074219 67.992188 L 29.222656 64.054688 L 28.292969 63.941406 L 28.0625 68.574219 L 28.640625 68.574219 L 28.875 64.75 L 30.726562 68.574219 L 31.652344 68.6875 Z M 35.941406 63.824219 L 33.390625 64.171875 L 33.507812 64.75 L 35.476562 64.519531 L 35.59375 66.023438 L 33.855469 66.257812 L 33.972656 66.835938 L 35.707031 66.605469 L 35.824219 67.992188 L 33.855469 68.226562 L 33.972656 68.804688 L 36.519531 68.457031 Z M 38.371094 67.992188 C 38.71875 67.992188 39.066406 67.992188 39.414062 67.878906 C 40.6875 67.644531 41.617188 66.371094 41.269531 64.984375 C 41.035156 63.710938 39.761719 62.78125 38.371094 63.128906 C 38.257812 63.128906 38.140625 63.246094 38.023438 63.246094 C 37.675781 63.363281 37.328125 63.476562 37.097656 63.710938 L 37.328125 64.402344 C 37.5625 64.171875 37.910156 63.941406 38.257812 63.941406 C 39.183594 63.710938 40.226562 64.289062 40.457031 65.214844 C 40.804688 66.140625 40.339844 67.066406 39.53125 67.414062 C 39.414062 67.414062 39.414062 67.414062 39.300781 67.53125 C 38.953125 67.644531 38.605469 67.644531 38.257812 67.53125 Z M 46.132812 62.78125 C 45.554688 61.742188 44.164062 61.394531 43.007812 61.972656 C 41.847656 62.550781 41.617188 63.941406 42.195312 65.097656 C 42.773438 66.140625 44.046875 66.488281 45.089844 66.023438 C 46.25 65.332031 46.710938 63.941406 46.132812 62.78125 M 45.4375 63.128906 C 45.902344 63.941406 45.671875 64.867188 44.976562 65.445312 C 44.976562 65.445312 44.859375 65.445312 44.859375 65.445312 C 43.933594 65.910156 43.121094 65.332031 42.660156 64.519531 C 42.195312 63.710938 42.3125 62.667969 43.238281 62.203125 C 44.164062 61.625 44.976562 62.203125 45.4375 63.128906 M 50.535156 61.855469 L 49.957031 62.320312 C 49.261719 62.898438 48.21875 62.667969 47.640625 61.972656 C 47.640625 61.972656 47.640625 61.972656 47.640625 61.855469 C 47.058594 61.277344 47.058594 60.234375 47.753906 59.65625 C 47.871094 59.539062 47.988281 59.425781 48.101562 59.425781 L 48.683594 59.078125 Z M 48.796875 58.035156 L 47.640625 58.847656 C 46.597656 59.425781 46.132812 60.699219 46.710938 61.742188 C 46.828125 61.855469 46.945312 62.089844 47.058594 62.203125 C 47.871094 63.246094 49.261719 63.476562 50.304688 62.667969 C 50.304688 62.667969 50.417969 62.550781 50.417969 62.550781 L 51.578125 61.742188 Z M 51.808594 58.035156 C 51.695312 57.917969 51.460938 57.917969 51.230469 58.035156 C 51.113281 58.152344 51.113281 58.382812 51.230469 58.613281 C 51.347656 58.730469 51.578125 58.730469 51.808594 58.613281 C 51.808594 58.382812 51.925781 58.152344 51.808594 58.035156 M 55.863281 53.636719 C 55.054688 52.824219 53.664062 52.824219 52.734375 53.636719 C 52.621094 53.75 52.621094 53.867188 52.503906 53.867188 C 51.695312 54.792969 51.808594 56.066406 52.734375 56.878906 C 52.851562 56.992188 52.96875 56.992188 53.082031 57.109375 C 54.011719 57.917969 55.402344 57.804688 56.210938 56.878906 C 57.023438 55.953125 56.90625 54.5625 55.980469 53.75 C 55.980469 53.75 55.980469 53.636719 55.863281 53.636719 M 55.515625 54.214844 C 56.328125 54.675781 56.558594 55.71875 55.980469 56.53125 C 55.402344 57.226562 54.472656 57.226562 53.777344 56.644531 C 53.777344 56.644531 53.664062 56.53125 53.664062 56.53125 C 52.851562 56.066406 52.621094 55.140625 53.082031 54.332031 C 53.082031 54.332031 53.082031 54.214844 53.199219 54.214844 C 53.777344 53.402344 54.707031 53.636719 55.515625 54.214844 M 59.453125 50.625 L 59.105469 51.320312 C 58.644531 52.128906 57.71875 52.476562 56.90625 52.015625 C 56.90625 52.015625 56.90625 52.015625 56.789062 52.015625 C 55.980469 51.667969 55.632812 50.855469 55.863281 50.046875 C 55.863281 49.929688 55.980469 49.8125 55.980469 49.699219 L 56.328125 49.121094 Z M 56.210938 48.191406 L 55.632812 49.351562 C 54.9375 50.394531 55.167969 51.667969 56.09375 52.476562 C 56.210938 52.59375 56.328125 52.710938 56.558594 52.710938 C 57.601562 53.289062 58.992188 52.941406 59.570312 51.78125 C 59.570312 51.667969 59.6875 51.667969 59.6875 51.550781 L 60.265625 50.394531 Z M 57.71875 43.328125 L 57.601562 43.910156 L 61.308594 45.066406 L 57.023438 45.992188 L 56.789062 46.804688 L 61.308594 48.191406 L 61.425781 47.613281 L 57.832031 46.570312 L 62.003906 45.644531 L 62.234375 44.71875 Z M 58.179688 39.277344 L 57.832031 41.824219 L 58.414062 41.941406 L 58.644531 39.972656 L 60.148438 40.085938 L 60.035156 41.824219 L 60.613281 41.941406 L 60.730469 40.203125 L 62.117188 40.320312 L 62.003906 42.289062 L 62.582031 42.402344 L 62.929688 39.855469 Z M 58.179688 36.84375 L 58.179688 37.425781 L 62.8125 37.308594 L 62.8125 36.613281 Z M 62.699219 34.992188 C 62.8125 34.644531 62.8125 34.183594 62.8125 33.835938 C 62.699219 32.5625 61.65625 31.636719 60.382812 31.75 C 60.265625 31.75 60.265625 31.75 60.148438 31.75 C 58.875 31.867188 57.949219 33.023438 58.066406 34.296875 C 58.066406 34.414062 58.066406 34.414062 58.066406 34.53125 C 58.066406 34.878906 58.179688 35.222656 58.414062 35.570312 L 58.992188 35.457031 C 58.875 35.109375 58.644531 34.878906 58.644531 34.53125 C 58.527344 33.601562 59.105469 32.675781 60.035156 32.5625 C 60.035156 32.5625 60.148438 32.5625 60.148438 32.5625 C 61.078125 32.328125 62.003906 33.023438 62.234375 33.949219 C 62.234375 33.949219 62.234375 34.066406 62.234375 34.066406 C 62.351562 34.414062 62.234375 34.761719 62.117188 35.109375 Z M 61.886719 29.78125 C 61.886719 29.433594 61.886719 29.085938 61.769531 28.738281 C 61.539062 27.929688 60.84375 27.351562 60.148438 27.582031 C 58.757812 27.929688 59.570312 29.898438 58.527344 30.128906 C 57.949219 30.246094 57.601562 29.78125 57.484375 29.550781 C 57.371094 29.203125 57.371094 28.855469 57.371094 28.507812 L 56.789062 28.625 C 56.789062 28.972656 56.789062 29.320312 56.789062 29.667969 C 56.90625 30.476562 57.601562 31.054688 58.414062 30.941406 C 58.414062 30.941406 58.527344 30.941406 58.527344 30.941406 C 60.035156 30.59375 59.222656 28.625 60.148438 28.394531 C 60.613281 28.277344 60.84375 28.625 60.960938 29.085938 C 61.078125 29.320312 61.078125 29.667969 61.078125 29.898438 Z M 57.832031 25.960938 C 57.601562 26.078125 57.484375 26.308594 57.601562 26.539062 C 57.71875 26.773438 57.949219 26.886719 58.179688 26.773438 C 58.414062 26.773438 58.527344 26.539062 58.414062 26.308594 C 58.414062 26.078125 58.179688 25.960938 57.949219 25.960938 C 57.832031 25.960938 57.832031 25.960938 57.832031 25.960938 M 52.621094 21.097656 L 52.96875 21.675781 L 56.328125 19.476562 L 53.777344 22.949219 L 54.125 23.53125 L 58.414062 22.601562 L 55.054688 24.804688 L 55.402344 25.382812 L 59.339844 22.835938 L 58.757812 21.910156 L 54.707031 22.835938 L 57.136719 19.476562 L 56.558594 18.550781 Z M 50.304688 18.667969 L 52.15625 20.519531 L 52.503906 20.171875 L 51.113281 18.78125 L 54.011719 16.003906 L 53.546875 15.539062 Z M 52.042969 13.917969 L 51.460938 13.570312 L 49.722656 15.65625 C 49.144531 16.351562 48.566406 16.699219 47.871094 16.117188 C 47.175781 15.539062 47.292969 14.960938 47.871094 14.265625 L 49.609375 12.183594 L 49.03125 11.835938 L 47.292969 14.035156 C 46.597656 14.730469 46.597656 15.886719 47.292969 16.582031 C 47.988281 17.277344 49.144531 17.277344 49.839844 16.582031 C 49.957031 16.464844 50.070312 16.351562 50.070312 16.234375 Z M 42.542969 13.457031 L 43.121094 13.804688 L 44.859375 10.097656 L 46.132812 10.675781 L 46.367188 10.097656 L 43.121094 8.59375 L 42.890625 9.171875 L 44.28125 9.867188 Z M 40.804688 7.320312 L 41.382812 7.433594 L 41.5 6.855469 L 40.921875 6.738281 Z M 39.648438 6.972656 L 40.226562 7.085938 L 40.339844 6.507812 L 39.878906 6.390625 Z M 40.457031 10.675781 L 38.605469 10.097656 L 40.226562 8.128906 Z M 36.867188 11.488281 L 37.5625 11.71875 L 38.371094 10.675781 L 40.574219 11.371094 L 40.6875 12.644531 L 41.382812 12.875 L 40.804688 7.78125 L 40.109375 7.550781 Z M 34.898438 11.253906 L 35.476562 11.371094 L 36.054688 7.320312 L 37.445312 7.433594 L 37.5625 6.855469 L 33.972656 6.390625 L 33.855469 6.972656 L 35.246094 7.085938 Z M 32 11.023438 L 32.582031 11.023438 L 32.695312 6.390625 L 32.117188 6.390625 Z M 30.148438 6.507812 C 29.800781 6.390625 29.453125 6.390625 29.105469 6.390625 C 28.179688 6.507812 27.714844 6.972656 27.714844 7.78125 C 27.832031 9.171875 29.800781 8.707031 29.917969 9.867188 C 30.03125 10.445312 29.453125 10.675781 28.988281 10.792969 C 28.640625 10.792969 28.292969 10.792969 28.0625 10.675781 L 28.0625 11.371094 C 28.410156 11.488281 28.640625 11.488281 28.988281 11.488281 C 29.917969 11.371094 30.613281 10.910156 30.613281 9.980469 C 30.496094 8.476562 28.527344 8.824219 28.410156 7.898438 C 28.292969 7.433594 28.757812 7.320312 29.222656 7.203125 C 29.453125 7.203125 29.800781 7.203125 30.03125 7.320312 Z M 23.660156 8.011719 L 24.242188 7.898438 C 24.820312 7.78125 25.167969 8.011719 25.398438 8.359375 C 25.515625 8.707031 25.28125 9.171875 24.589844 9.289062 L 24.007812 9.402344 Z M 24.007812 12.066406 L 24.589844 11.949219 L 24.125 9.980469 L 24.472656 9.867188 C 24.820312 9.75 25.050781 9.75 25.398438 10.097656 L 26.558594 11.488281 L 27.253906 11.371094 L 25.976562 9.75 C 25.746094 9.519531 25.628906 9.402344 25.398438 9.402344 C 25.863281 9.171875 26.210938 8.707031 26.09375 8.128906 C 25.863281 6.972656 24.9375 7.085938 24.007812 7.320312 L 22.851562 7.550781 Z M 20.300781 13.570312 L 22.617188 12.53125 L 22.386719 12.066406 L 20.535156 12.875 L 19.953125 11.488281 L 21.578125 10.792969 L 21.34375 10.214844 L 19.722656 10.910156 L 19.144531 9.632812 L 20.996094 8.824219 L 20.765625 8.246094 L 18.449219 9.289062 Z M 16.828125 10.097656 L 16.246094 10.445312 L 17.175781 14.730469 L 13.816406 12.183594 L 13.234375 12.53125 L 17.289062 15.539062 L 17.984375 15.078125 Z M 14.511719 17.507812 L 15.089844 17.160156 L 12.078125 13.457031 L 11.5 13.804688 Z M 10.804688 21.214844 L 11.265625 20.75 L 8.371094 18.203125 L 12.65625 19.246094 L 13.234375 18.667969 L 9.761719 15.539062 L 9.296875 16.003906 L 12.078125 18.550781 L 7.90625 17.507812 L 7.328125 18.203125 Z M 5.9375 20.054688 L 5.589844 20.636719 L 7.90625 22.023438 C 8.71875 22.488281 9.066406 23.066406 8.601562 23.761719 C 8.140625 24.457031 7.445312 24.457031 6.75 23.992188 L 4.433594 22.601562 L 4.085938 23.183594 L 6.402344 24.570312 C 7.097656 25.152344 8.140625 25.152344 8.835938 24.457031 C 8.949219 24.339844 9.066406 24.222656 9.066406 24.109375 C 9.644531 23.296875 9.414062 22.140625 8.488281 21.675781 C 8.371094 21.675781 8.371094 21.5625 8.253906 21.5625 Z M 5.9375 20.054688 " fill-opacity="1" fill-rule="nonzero"/></svg>